<svg width="231" height="45" viewBox="0 0 231 45" fill="none" xmlns="http://www.w3.org/2000/svg">
<g clip-path="url(#clip0_428_35)">
<path d="M68.5868 0.28418V34.3828L42.6774 0.298857H36.4961V44.3842H42.5441V9.94552L68.4961 44.3628H74.6375V0.28418H68.5868Z" fill="black"/>
<path d="M82.0168 42.7653V36.748C86.8688 38.576 91.7022 39.364 97.1008 39.364C103.725 39.364 107.918 37.132 107.918 31.6973C107.918 26.988 105.207 24.9907 100.115 24.9907L94.4021 25.0107C85.1101 25.0107 80.4648 20.72 80.4648 12.6413C80.4648 4.23734 86.4128 0 98.3155 0C103.486 0 108.299 0.653344 112.749 1.88401V7.90667C109.421 6.48267 104.148 5.34668 98.7195 5.31068C90.6488 5.25202 86.8501 7.78934 86.8501 12.6413C86.8501 17.3533 89.4488 19.376 94.4021 19.376H100.115C109.766 19.376 114.3 23.7107 114.3 31.6973C114.3 40.304 108.569 44.6747 97.1008 44.6747C91.7022 44.6747 86.6728 43.9906 82.0168 42.7653Z" fill="black"/>
<path d="M120.394 42.7653V36.748C125.249 38.576 130.081 39.364 135.48 39.364C142.101 39.364 146.297 37.132 146.297 31.6973C146.297 26.988 143.582 24.9907 138.493 24.9907L132.78 25.0107C123.488 25.0107 118.844 20.72 118.844 12.6413C118.844 4.23734 124.792 0 136.694 0C141.865 0 146.678 0.653344 151.126 1.88401V7.90667C147.797 6.48267 142.525 5.34668 137.102 5.31068C129.026 5.25202 125.228 7.78934 125.228 12.6413C125.228 17.3533 127.825 19.376 132.78 19.376H138.493C148.144 19.376 152.678 23.7107 152.678 31.6973C152.678 40.304 146.948 44.6747 135.48 44.6747C130.081 44.6747 125.05 43.9906 120.394 42.7653Z" fill="black"/>
<path d="M230.099 0.324219V5.63488H216.472V44.3629H210.099V5.63488H196.471V0.324219H230.099Z" fill="black"/>
<path d="M177.355 7.21388L162.156 44.3632H155.496L174.183 0.303223H180.913L199.733 44.3792H192.671L177.355 7.21388Z" fill="black"/>
<path d="M187.055 30.7471H172.451L174.262 25.4351H184.895L187.055 30.7471Z" fill="black"/>
<path d="M11.0059 19.3682H28.0499V24.7148H11.0059V19.3682Z" fill="black"/>
<path d="M11.0273 39.0562H29.4566V44.3788H11.0273V39.0562Z" fill="black"/>
<path d="M11.0273 0.269531H29.1113V5.59219H11.0273V0.269531Z" fill="black"/>
<path d="M6.408 44.3866H0V0.246582H6.408V44.3866Z" fill="black"/>
</g>
<defs>
<clipPath id="clip0_428_35">
<rect width="231" height="45" fill="white"/>
</clipPath>
</defs>
</svg>
