<svg width="349" height="38" viewBox="0 0 349 38" fill="none" xmlns="http://www.w3.org/2000/svg">
<path d="M44.9985 5.55606C45.7645 5.5263 47.9639 5.43192 48.6107 5.61939C48.7348 6.69893 48.6519 9.55578 48.6495 10.7601L48.6457 21.004L48.6438 28.851C48.6454 29.5146 48.7185 31.7638 48.6377 32.2881C48.2598 32.665 47.1125 32.4786 46.5972 32.5314C44.6062 32.7353 44.2651 31.7196 43.1813 30.2104L41.1685 27.4446C39.2219 24.7964 37.1591 22.1853 35.2331 19.5677L31.6207 14.6341C31.3016 14.1934 30.0041 12.2322 29.6655 12.076C29.5058 12.214 29.4392 12.4219 29.4442 12.6343C29.4813 14.1904 29.4847 15.7932 29.4793 17.3451L29.4762 28.4731C29.4775 29.7865 29.5428 31.2419 29.516 32.5196C28.5099 32.5279 26.6505 32.5866 25.7449 32.4265C25.6284 30.6546 25.6943 28.2389 25.6946 26.4211L25.6986 15.7973L25.6937 9.40863C25.6931 8.39689 25.6386 6.48416 25.8076 5.56804C26.7343 5.51081 28.3873 5.46608 29.3037 5.56877C30.0514 6.04996 32.0718 9.06571 32.7113 9.93168C34.7035 12.6293 36.8143 15.2757 38.8092 17.9604L42.4734 22.9083C42.7911 23.3454 44.3328 25.6338 44.6994 25.8366C44.7656 25.9208 44.8422 25.9352 44.9418 25.9688L45.0336 25.8889C45.1472 25.526 45.1382 6.64246 44.9985 5.55606Z" fill="#0C0C0C"/>
<path d="M76.0456 31.5896C76.0026 31.023 75.9431 28.3017 76.1617 27.9135C76.6556 27.9755 77.2211 28.2095 77.7225 28.3272C78.5188 28.5139 79.5178 28.8394 80.3231 28.9621C83.4597 29.4142 87.2094 29.9177 90.0595 28.1625C91.7485 27.1226 92.1428 24.0229 91.0427 22.412C89.8062 20.6006 87.6701 20.7334 85.7511 20.741C84.2281 20.7471 82.5383 20.8267 81.0281 20.595C79.3286 20.2954 77.2784 19.2797 76.3065 17.7691C74.4332 14.8573 74.6374 9.61673 77.6222 7.50222C80.2688 5.62803 83.1966 5.38752 86.3031 5.49226C87.3376 5.52712 88.3902 5.45382 89.4239 5.55859C91.1491 5.77478 92.9202 6.19117 94.6386 6.51423C94.6408 7.08579 94.7713 9.94325 94.5865 10.2136C94.4953 10.3474 91.9506 9.54713 91.6512 9.46889C89.1027 8.80205 86.1945 8.4991 83.5939 8.93894C82.1779 9.17834 80.6367 9.6498 79.7674 10.9002C79.0918 11.8719 78.947 13.1574 79.1499 14.3093C79.7154 17.5215 83.284 17.2364 85.7082 17.2287C86.8339 17.2252 87.9702 17.2498 89.0899 17.383C90.429 17.5424 91.8329 17.9677 92.9458 18.7591C94.1583 19.6212 95.0465 21.0935 95.3051 22.5684C95.2244 23.805 95.1792 24.9754 95.2938 26.2112C95.3179 26.4674 95.3225 26.7339 95.3096 26.9909C95.3051 27.0112 95.3006 27.0315 95.2961 27.0517C93.6086 34.661 81.485 32.8626 76.0456 31.5896Z" fill="#0C0C0C"/>
<path d="M72.4057 25.6365C71.8741 34.698 59.5032 33 53.5316 31.703C52.7772 31.5773 53.2116 30.247 53.1585 29.7019C53.1832 29.5375 52.9651 27.9569 53.2067 28.006C55.1951 28.4098 57.1217 29.0737 59.1606 29.2337C62.213 29.4732 66.9405 29.8323 68.3687 26.3308C68.7065 25.5026 68.6032 23.6027 68.1962 22.7616C67.1154 20.7829 64.5511 20.6235 62.5484 20.7443C58.2164 21.0055 53.3703 20.4183 52.3166 15.2807C51.4026 10.8239 53.3921 6.80458 57.9753 5.96271C58.5857 5.85058 59.274 5.60313 59.9114 5.56055C63.5152 5.40988 68.1556 5.36062 71.5691 6.57749C71.5653 7.20015 71.637 9.8158 71.4829 10.2149C70.6048 10.1069 69.4709 9.65962 68.5364 9.43874C64.8275 8.56205 55.8505 7.47376 56.0102 13.5056C56.1113 17.3269 59.7543 17.3195 62.5923 17.2283C67.274 17.0777 72.189 18.0456 72.381 23.8078C72.369 24.4203 72.3677 25.025 72.4057 25.6365Z" fill="#0C0C0C"/>
<path d="M109.305 5.54395C110.252 5.43621 111.352 5.49661 112.294 5.60461C113.315 7.11557 113.891 9.00048 114.585 10.6869C115.497 12.9037 116.456 15.1218 117.398 17.3266C119.138 21.2948 120.816 25.2908 122.432 29.3132C122.853 30.3624 123.503 31.396 123.75 32.5004C122.809 32.5464 120.344 32.7546 119.542 32.3037C118.698 31.8301 116.784 24.5983 115.787 24.2507C115.226 24.0546 114.493 24.1653 113.904 24.1702L110.167 24.1947C109.461 24.2022 108.703 24.2697 108.003 24.1863C107.775 24.1592 107.646 24.1316 107.476 23.9789C107.48 23.2563 108.097 21.7703 108.317 21.0278C110.022 20.6758 113.107 21.2735 114.463 20.8308C114.476 20.8115 114.487 20.7938 114.497 20.7728C114.727 20.2581 113.758 18.5785 113.541 18.042C113.327 17.5143 113.141 16.9729 112.95 16.4363C112.886 16.1678 112.682 15.8838 112.578 15.6212L111.371 12.5987C111.101 11.9257 110.941 11.1531 110.6 10.5189C110.411 10.3946 110.366 10.3804 110.141 10.3701C109.928 10.5354 109.142 12.8864 108.986 13.2832L103.538 26.7567C102.803 28.5888 102.144 30.7323 101.205 32.4397C99.9504 32.6714 98.4854 32.5309 97.2051 32.5244C97.3981 31.5617 108.241 5.89697 108.364 5.74966C108.531 5.54978 109.059 5.56176 109.305 5.54395Z" fill="#0C0C0C"/>
<path d="M121.796 5.5485C124.218 5.48996 126.646 5.52748 129.069 5.5273L141.904 5.52642C141.937 6.67175 141.967 7.83325 141.898 8.97721C140.397 9.1226 134.701 8.78466 133.974 9.11326C133.876 9.3793 133.837 9.64903 133.821 9.931C133.729 11.4731 133.822 13.0832 133.822 14.6324L133.824 24.4612C133.823 27.1433 133.895 29.84 133.824 32.5203C132.497 32.5394 131.167 32.5223 129.84 32.5222C129.922 26.8996 129.865 21.2695 129.865 15.6459L129.868 11.9741C129.874 11.082 129.991 10.0204 129.8 9.1497C128.972 8.76927 123.174 9.14005 121.689 8.96519C121.681 7.93523 121.519 6.53655 121.796 5.5485Z" fill="#0C0C0C"/>
<path d="M3.85782 5.53465C5.00504 5.50893 6.31965 5.43878 7.46631 5.55576C7.65828 5.57535 7.68746 5.71612 7.76121 5.87201C7.57346 7.94644 7.62006 9.79697 7.61998 11.873L7.62277 19.6801L7.62149 26.9369C7.62081 28.6098 7.57715 30.405 7.72599 32.0596L7.69161 32.4829C6.64555 32.581 4.94482 32.5179 3.84889 32.5046C3.79508 31.1344 3.83096 29.5206 3.83055 28.1306L3.82934 20.204C3.82909 15.4795 3.71766 10.223 3.85782 5.53465Z" fill="#0C0C0C"/>
<path d="M11.0282 5.54041C12.7448 5.43941 14.499 5.51597 16.2213 5.51449C17.4874 5.51341 20.1273 5.34783 21.2682 5.62147C21.2983 5.66844 21.3222 5.71688 21.3423 5.76912C21.4535 6.05791 21.4763 8.57523 21.3532 8.86815C21.1774 9.01453 21.1241 9.00718 20.9055 9.01981C18.7416 8.97732 16.5702 9.01407 14.4055 9.01369C13.3264 9.01346 11.4592 9.19085 10.4909 8.86899C10.4263 8.84755 10.4195 8.8363 10.3898 8.77222C10.2116 8.38773 10.3242 6.13013 10.4789 5.7115C10.6635 5.56655 10.7998 5.57369 11.0282 5.54041Z" fill="#0C0C0C"/>
<path d="M10.4389 29.1885C14.1896 29.165 17.9404 29.1664 21.6911 29.1927C21.5928 29.981 21.9864 31.8661 21.4676 32.454C20.2469 32.6334 18.8975 32.5283 17.6624 32.5281C15.2281 32.5277 12.808 32.5399 10.3773 32.4224C10.3286 31.9041 10.2094 29.5456 10.4389 29.1885ZM21.5302 31.421C21.5661 31.0714 21.6746 30.4805 21.4235 30.1957C21.4007 30.1698 21.3784 30.1522 21.3481 30.1366C21.3141 30.5236 21.2507 30.929 21.3438 31.3109C21.411 31.368 21.4424 31.4036 21.5302 31.421Z" fill="#0C0C0C"/>
<path d="M21.3458 30.1367C21.3761 30.1523 21.3984 30.1699 21.4212 30.1959C21.6723 30.4807 21.5638 31.0715 21.5279 31.4212C21.4401 31.4037 21.4087 31.3682 21.3415 31.3111C21.2484 30.9291 21.3118 30.5237 21.3458 30.1367Z" fill="#0C0C0C"/>
<path d="M10.8742 17.2618C12.7865 17.0961 14.8021 17.2236 16.7276 17.2213C17.7332 17.22 19.6884 17.0767 20.5598 17.2699C20.6066 17.316 20.646 17.3656 20.679 17.423C20.8589 17.736 20.8611 19.9945 20.7521 20.3991C20.6091 20.5747 20.5978 20.5741 20.3759 20.6152C17.0491 20.5678 13.6452 20.7655 10.3329 20.562C10.3504 19.8226 10.1416 18.148 10.4466 17.5381C10.55 17.3315 10.6761 17.3251 10.8742 17.2618Z" fill="#0C0C0C"/>
<path d="M7.75958 5.87186C7.77308 6.06998 7.77428 6.82063 7.8101 6.89108C7.92252 6.33495 8.16478 6.68926 7.9131 5.70898C8.11261 6.13721 8.10197 7.11453 8.11622 7.67527C8.05658 10.3388 8.318 30.6819 7.96143 31.5782L7.8907 31.5627L7.80392 31.315L7.73741 31.3868C7.76946 31.6167 7.84245 31.8765 7.72437 32.0594C7.57553 30.4049 7.61919 28.6097 7.61986 26.9368L7.62115 19.68L7.61836 11.8728C7.61843 9.79682 7.57183 7.94629 7.75958 5.87186Z" fill="#0C0C0C"/>
<path d="M44.7006 25.8362L44.7371 25.7383L44.5957 25.549C44.9428 24.6999 44.631 23.7048 44.6375 22.8003C44.6523 20.7479 44.4864 6.80475 44.8337 6.19408C44.9316 6.02188 44.9133 5.75571 44.9998 5.55566C45.1394 6.64207 45.1484 25.5256 45.0348 25.8885L44.943 25.9684C44.8435 25.9348 44.7668 25.9204 44.7006 25.8362Z" fill="#0E0C0D"/>
<path d="M8.11764 7.6748C8.18762 7.80848 8.17902 7.86261 8.17909 8.01052C8.18143 15.9605 8.17977 23.911 8.17638 31.8609C8.17631 32.0354 8.16077 32.3445 8.0853 32.4913C7.90652 32.5118 7.86732 32.5157 7.69141 32.4822L7.72579 32.0589C7.84387 31.876 7.77088 31.6162 7.73883 31.3864L7.80534 31.3145L7.89212 31.5622L7.96285 31.5778C8.31941 30.6814 8.058 10.3383 8.11764 7.6748Z" fill="#0C0C0C"/>
<path d="M95.305 22.5684C95.3344 22.701 95.3638 22.8562 95.4143 22.9864C95.8237 24.0367 95.7152 25.5267 95.3751 26.591C95.345 26.6861 95.3238 26.888 95.3095 26.9908C95.3223 26.7338 95.3178 26.4674 95.2937 26.2112C95.1791 24.9753 95.2243 23.805 95.305 22.5684Z" fill="#0C0C0C"/>
<g clip-path="url(#clip0_1378_1870)">
<path d="M192.83 21.1728L191.652 22.3516L198.718 29.4239L199.896 28.2452L192.83 21.1728Z" fill="#1D1D1B"/>
<path d="M195.185 18.8115L194.008 19.9902L201.073 27.0625L202.251 25.8838L195.185 18.8115Z" fill="#1D1D1B"/>
<path d="M182.234 10.5596L181.057 11.7383L188.122 18.8106L189.3 17.6319L182.234 10.5596Z" fill="#1D1D1B"/>
<path d="M184.586 8.208L183.408 9.38672L190.474 16.459L191.651 15.2803L184.586 8.208Z" fill="#1D1D1B"/>
<path d="M198.718 8.20796L191.652 15.2803L192.83 16.459L199.896 9.38668L198.718 8.20796Z" fill="#1D1D1B"/>
<path d="M201.073 10.5605L194.008 17.6328L195.185 18.8115L202.251 11.7392L201.073 10.5605Z" fill="#1D1D1B"/>
<path d="M188.122 18.8105L181.057 25.8828L182.234 27.0615L189.3 19.9892L188.122 18.8105Z" fill="#1D1D1B"/>
<path d="M190.478 21.1728L183.412 28.2451L184.59 29.4238L191.655 22.3515L190.478 21.1728Z" fill="#1D1D1B"/>
<path d="M190.822 6.3125H189.156V11.3134H190.822V6.3125Z" fill="#1D1D1B"/>
<path d="M194.152 6.3125H192.486V11.3134H194.152V6.3125Z" fill="#1D1D1B"/>
<path d="M190.822 26.3115H189.156V31.3124H190.822V26.3115Z" fill="#1D1D1B"/>
<path d="M194.152 26.3115H192.486V31.3124H194.152V26.3115Z" fill="#1D1D1B"/>
<path d="M204.141 16.3145H199.145V17.9814H204.141V16.3145Z" fill="#1D1D1B"/>
<path d="M204.141 19.6484H199.145V21.3154H204.141V19.6484Z" fill="#1D1D1B"/>
<path d="M184.16 16.3145H179.164V17.9814H184.16V16.3145Z" fill="#1D1D1B"/>
<path d="M184.16 19.6484H179.164V21.3154H184.16V19.6484Z" fill="#1D1D1B"/>
<path d="M261.521 15.9836H259.67V23.2247H261.521V15.9836ZM229.156 15.9836H227.306V23.2247H229.156V15.9836ZM216.992 19.3881V13.5537H215.084V19.3881C215.084 20.689 214.331 21.4872 213.057 21.4872C211.784 21.4872 211.048 20.689 211.048 19.3881V13.5537H209.141V19.3881C209.141 21.7606 210.643 23.3702 213.062 23.3702C215.48 23.3702 216.996 21.7606 216.996 19.3881M223.706 23.2247H225.587V19.1279C225.587 17.2448 224.459 15.8425 222.287 15.8425C221.71 15.8425 221.159 15.9748 220.71 16.2614V15.988H218.802V23.2291H220.71V18.4355C220.869 18.1621 221.305 17.6109 222.212 17.6109C223.12 17.6109 223.702 18.2768 223.702 19.1323V23.2291L223.706 23.2247ZM227.279 14.6077H229.187V12.6364H227.279V14.6077ZM235.205 23.2247L237.923 15.9836H235.941L234.161 20.7199L232.266 15.9836H230.284L233.222 23.2247H235.205ZM243.726 18.8941H240.47C240.673 18.0518 241.281 17.5756 242.175 17.5756C242.911 17.5756 243.549 18.0254 243.721 18.8941M245.576 20.2127C245.62 19.9393 245.62 19.6615 245.62 19.4145C245.62 17.3727 244.276 15.8248 242.118 15.8248C239.959 15.8248 238.514 17.5315 238.514 19.5733C238.514 21.6151 239.875 23.3835 242.118 23.3835C243.721 23.3835 244.633 22.7749 245.444 21.7606L244.043 20.7463C243.549 21.3549 243.016 21.6724 242.232 21.6724C241.307 21.6724 240.642 21.1212 240.439 20.2083H245.576V20.2127ZM248.991 18.4179L251.22 17.5491V15.6661L248.991 16.5216V15.988H247.052V23.2291H248.991V18.4223V18.4179ZM257.366 18.0386L258.19 17.7079C257.815 16.4643 256.727 15.8248 255.11 15.8248C253.216 15.8248 252.233 16.9097 252.233 18.0827C252.233 19.3881 253.132 20.0099 254.793 20.3979L254.982 20.442C256.097 20.7022 256.269 20.8345 256.269 21.1785C256.269 21.5842 255.864 21.8003 255.242 21.8003C254.489 21.8003 253.943 21.3814 253.665 20.8301L252.854 21.1785L252 21.5269C252.564 22.6117 253.608 23.3791 255.282 23.3791C257.049 23.3791 258.115 22.3516 258.115 21.1212C258.115 19.8908 257.406 19.2117 255.511 18.7883L255.383 18.7574C254.313 18.5237 254.04 18.365 254.04 17.9769C254.04 17.6726 254.414 17.3683 255.084 17.3683C255.82 17.3683 256.357 17.7873 256.529 18.3385L257.366 18.0342V18.0386ZM254.674 17.9813C254.674 18.0122 254.661 18.0122 254.705 18.0122C254.674 18.0122 254.674 17.9989 254.674 17.9813ZM259.639 14.6077H261.547V12.6364H259.639V14.6077ZM266.032 17.7343H268.041V15.9836H266.032V13.783H264.182V15.9836H262.737V17.7343H264.182V23.2203H266.032V17.7343ZM273.147 14.9869L274.592 12.5835H272.539L271.235 14.9869H273.143H273.147ZM273.843 18.8941H270.588C270.79 18.0518 271.398 17.5756 272.293 17.5756C273.028 17.5756 273.667 18.0254 273.839 18.8941M275.694 20.2127C275.738 19.9393 275.738 19.6615 275.738 19.4145C275.738 17.3727 274.394 15.8248 272.235 15.8248C270.076 15.8248 268.631 17.5315 268.631 19.5733C268.631 21.6151 269.993 23.3835 272.235 23.3835C273.839 23.3835 274.751 22.7749 275.562 21.7606L274.156 20.7463C273.663 21.3549 273.13 21.6724 272.35 21.6724C271.425 21.6724 270.759 21.1212 270.557 20.2083H275.694V20.2127ZM286.118 21.0374C285.743 21.3858 285.307 21.6151 284.629 21.6151C283.571 21.6151 282.646 20.8919 282.646 19.6042C282.646 18.3164 283.558 17.5888 284.655 17.5888C285.162 17.5888 285.682 17.7784 286.118 18.0518V21.033V21.0374ZM286.118 23.2247H288.056V12.5791H286.118V16.1864C285.567 15.9527 285.021 15.8248 284.439 15.8248C282.355 15.8248 280.734 17.3727 280.734 19.6042C280.734 21.8356 282.21 23.3835 284.439 23.3835C284.959 23.3835 285.523 23.282 286.118 22.9204V23.2247ZM294.709 18.8941H291.453C291.656 18.0518 292.264 17.5756 293.158 17.5756C293.894 17.5756 294.533 18.0254 294.705 18.8941M296.559 20.2127C296.603 19.9393 296.603 19.6615 296.603 19.4145C296.603 17.3727 295.26 15.8248 293.101 15.8248C290.942 15.8248 289.501 17.5315 289.501 19.5733C289.501 21.6151 290.863 23.3835 293.101 23.3835C294.709 23.3835 295.617 22.7749 296.427 21.7606L295.022 20.7463C294.528 21.3549 293.995 21.6724 293.215 21.6724C292.29 21.6724 291.625 21.1212 291.422 20.2083H296.559V20.2127ZM305.952 16.6054C305.939 17.4609 305.344 17.8666 304.419 17.8666H303.507V15.3618H304.419C305.331 15.3618 305.939 15.8557 305.952 16.6054ZM308.05 23.2247L306.199 19.344C307.27 18.7927 307.834 17.677 307.834 16.6054V16.5922C307.834 14.7664 306.287 13.5537 304.723 13.5537H301.6V23.2247H303.507V19.6791H304.388L306.054 23.2247H308.05ZM314.041 18.8941H310.786C310.988 18.0518 311.596 17.5756 312.491 17.5756C313.226 17.5756 313.865 18.0254 314.037 18.8941M315.892 20.2127C315.936 19.9393 315.936 19.6615 315.936 19.4145C315.936 17.3727 314.592 15.8248 312.433 15.8248C310.275 15.8248 308.829 17.5315 308.829 19.5733C308.829 21.6151 310.191 23.3835 312.433 23.3835C314.041 23.3835 314.949 22.7749 315.76 21.7606L314.354 20.7463C313.861 21.3549 313.328 21.6724 312.548 21.6724C311.623 21.6724 310.957 21.1212 310.755 20.2083H315.892V20.2127ZM322.241 23.2247H324.122V19.1279C324.122 17.2448 322.994 15.8425 320.822 15.8425C320.245 15.8425 319.694 15.9748 319.245 16.2614V15.988H317.337V23.2291H319.245V18.4355C319.403 18.1621 319.839 17.6109 320.747 17.6109C321.655 17.6109 322.236 18.2768 322.236 19.1323V23.2291L322.241 23.2247ZM330.691 23.2247H332.572V19.1279C332.572 17.2448 331.444 15.8425 329.272 15.8425C328.695 15.8425 328.144 15.9748 327.695 16.2614V15.988H325.787V23.2291H327.695V18.4355C327.853 18.1621 328.29 17.6109 329.197 17.6109C330.105 17.6109 330.686 18.2768 330.686 19.1323V23.2291L330.691 23.2247ZM339.11 18.8941H335.854C336.057 18.0518 336.665 17.5756 337.559 17.5756C338.295 17.5756 338.934 18.0254 339.106 18.8941M340.961 20.2127C341.005 19.9393 341.005 19.6615 341.005 19.4145C341.005 17.3727 339.661 15.8248 337.502 15.8248C335.343 15.8248 333.898 17.5315 333.898 19.5733C333.898 21.6151 335.26 23.3835 337.502 23.3835C339.11 23.3835 340.018 22.7749 340.828 21.7606L339.423 20.7463C338.929 21.3549 338.396 21.6724 337.612 21.6724C336.687 21.6724 336.022 21.1212 335.819 20.2083H340.956L340.961 20.2127ZM348.164 17.7079C347.789 16.4643 346.701 15.8248 345.084 15.8248C343.19 15.8248 342.207 16.9097 342.207 18.0827C342.207 19.3881 343.106 20.0099 344.767 20.3979L344.957 20.442C346.071 20.7022 346.243 20.8345 346.243 21.1785C346.243 21.5842 345.838 21.8003 345.216 21.8003C344.463 21.8003 343.917 21.3814 343.639 20.8301L342.829 21.1785L341.974 21.5269C342.538 22.6117 343.582 23.3791 345.256 23.3791C347.023 23.3791 348.093 22.3516 348.093 21.1212C348.093 19.8908 347.384 19.2117 345.49 18.7883L345.362 18.7574C344.291 18.5237 344.018 18.365 344.018 17.9769C344.018 17.6726 344.393 17.3683 345.062 17.3683C345.798 17.3683 346.336 17.7873 346.507 18.3385L347.344 18.0342L348.168 17.7035L348.164 17.7079ZM344.648 17.9813C344.648 18.0122 344.635 18.0122 344.679 18.0122C344.648 18.0122 344.648 17.9989 344.648 17.9813Z" fill="#1D1D1B"/>
</g>
<rect x="161.398" y="5.23438" width="0.872428" height="27.9177" fill="#D9D9D9"/>
<defs>
<clipPath id="clip0_1378_1870">
<rect width="169" height="25" fill="white" transform="translate(179.164 6.3125)"/>
</clipPath>
</defs>
</svg>
