<svg width="344" height="54" viewBox="0 0 344 54" fill="none" xmlns="http://www.w3.org/2000/svg">
<path d="M41.4389 5.16877C42.1443 5.14108 44.1697 5.05329 44.7654 5.22768C44.8797 6.2319 44.8033 8.88943 44.8011 10.0098L44.7976 19.539L44.7959 26.8384C44.7974 27.4558 44.8647 29.5481 44.7902 30.0357C44.4423 30.3863 43.3857 30.213 42.9111 30.2621C41.0776 30.4518 40.7635 29.5069 39.7655 28.1031L37.9119 25.5302C36.1192 23.0668 34.2196 20.6379 32.4459 18.2028L29.1192 13.6134C28.8253 13.2035 27.6305 11.3791 27.3187 11.2338C27.1716 11.3622 27.1103 11.5556 27.1149 11.7531C27.1491 13.2007 27.1522 14.6917 27.1472 16.1354L27.1443 26.487C27.1455 27.7087 27.2057 29.0625 27.181 30.2512C26.2545 30.2589 24.5421 30.3134 23.7082 30.1646C23.6009 28.5162 23.6616 26.2691 23.6619 24.5781L23.6655 14.6955L23.6611 8.75255C23.6605 7.8114 23.6103 6.03212 23.7659 5.17991C24.6193 5.12668 26.1415 5.08507 26.9855 5.18059C27.6741 5.62821 29.5346 8.43356 30.1236 9.23912C31.9582 11.7485 33.902 14.2103 35.7392 16.7077L39.1135 21.3104C39.4061 21.717 40.8259 23.8457 41.1634 24.0344C41.2244 24.1127 41.295 24.1261 41.3867 24.1574L41.4712 24.0831C41.5758 23.7455 41.5675 6.17937 41.4389 5.16877Z" fill="#0C0C0C"/>
<path d="M70.0292 29.3856C69.9897 28.8585 69.9348 26.327 70.1362 25.966C70.591 26.0236 71.1118 26.2413 71.5735 26.3507C72.3068 26.5244 73.2268 26.8273 73.9684 26.9414C76.8569 27.362 80.31 27.8303 82.9347 26.1976C84.4901 25.2303 84.8532 22.3468 83.8401 20.8483C82.7014 19.1632 80.7342 19.2868 78.9671 19.2939C77.5645 19.2995 76.0084 19.3736 74.6176 19.1581C73.0525 18.8793 71.1645 17.9345 70.2695 16.5293C68.5443 13.8206 68.7324 8.9457 71.4812 6.97872C73.9184 5.23528 76.6146 5.01156 79.4754 5.10899C80.428 5.14142 81.3974 5.07323 82.3493 5.17069C83.938 5.37179 85.5691 5.75914 87.1516 6.05966C87.1536 6.59134 87.2738 9.24945 87.1036 9.50092C87.0196 9.62541 84.6762 8.88096 84.4005 8.80818C82.0535 8.18786 79.3754 7.90605 76.9805 8.3152C75.6765 8.5379 74.2572 8.97647 73.4566 10.1396C72.8345 11.0435 72.7011 12.2393 72.8879 13.3109C73.4087 16.299 76.6951 16.0338 78.9275 16.0266C79.9642 16.0233 81.0106 16.0462 82.0417 16.1701C83.2749 16.3184 84.5678 16.7141 85.5927 17.4502C86.7092 18.2522 87.5272 19.6217 87.7654 20.9938C87.6911 22.1441 87.6494 23.2328 87.755 24.3824C87.7772 24.6208 87.7814 24.8686 87.7695 25.1077C87.7654 25.1266 87.7612 25.1454 87.757 25.1642C86.2031 32.2427 75.0384 30.5698 70.0292 29.3856Z" fill="#0C0C0C"/>
<path d="M66.6784 23.8487C66.1889 32.2779 54.7965 30.6984 49.2973 29.4919C48.6026 29.375 49.0025 28.1375 48.9536 27.6304C48.9764 27.4775 48.7756 26.0072 48.9981 26.0528C50.8292 26.4284 52.6034 27.046 54.481 27.1949C57.292 27.4176 61.6456 27.7517 62.9608 24.4945C63.2719 23.7241 63.1768 21.9567 62.802 21.1743C61.8067 19.3336 59.4452 19.1853 57.6008 19.2977C53.6115 19.5407 49.1487 18.9945 48.1784 14.2154C47.3367 10.0694 49.1687 6.33057 53.3894 5.54743C53.9516 5.44313 54.5854 5.21294 55.1724 5.17334C58.4912 5.03318 62.7645 4.98735 65.9081 6.11932C65.9046 6.69854 65.9706 9.1317 65.8287 9.50296C65.02 9.40247 63.9758 8.98642 63.1152 8.78095C59.6997 7.96543 51.4327 6.95306 51.5798 12.5641C51.6729 16.1187 55.0277 16.1119 57.6412 16.027C61.9527 15.887 66.4789 16.7873 66.6557 22.1475C66.6446 22.7173 66.6435 23.2798 66.6784 23.8487Z" fill="#0C0C0C"/>
<path d="M100.659 5.15718C101.53 5.05696 102.544 5.11314 103.411 5.21361C104.351 6.61916 104.882 8.37256 105.521 9.94129C106.361 12.0035 107.243 14.0668 108.111 16.1178C109.714 19.8091 111.259 23.5264 112.747 27.2681C113.135 28.2441 113.734 29.2056 113.961 30.233C113.095 30.2758 110.824 30.4694 110.085 30.0499C109.308 29.6094 107.545 22.8821 106.628 22.5588C106.111 22.3764 105.436 22.4794 104.894 22.484L101.452 22.5067C100.802 22.5137 100.104 22.5765 99.4596 22.4989C99.2499 22.4737 99.1305 22.4481 98.9743 22.306C98.9777 21.6338 99.5457 20.2515 99.7485 19.5608C101.319 19.2333 104.16 19.7893 105.409 19.3775C105.421 19.3596 105.43 19.3431 105.439 19.3236C105.652 18.8448 104.76 17.2824 104.56 16.7833C104.363 16.2924 104.191 15.7888 104.015 15.2896C103.956 15.0398 103.769 14.7756 103.672 14.5313L102.561 11.7198C102.313 11.0937 102.165 10.375 101.851 9.78504C101.677 9.66945 101.636 9.65621 101.428 9.64659C101.232 9.80035 100.509 11.9873 100.364 12.3565L95.3476 24.89C94.6706 26.5943 94.0637 28.5882 93.1992 30.1765C92.0438 30.392 90.6947 30.2613 89.5156 30.2553C89.6934 29.3598 99.679 5.48557 99.7922 5.34854C99.9457 5.1626 100.432 5.17375 100.659 5.15718Z" fill="#0C0C0C"/>
<path d="M112.164 5.16144C114.394 5.10699 116.631 5.14189 118.862 5.14172L130.681 5.1409C130.712 6.20633 130.74 7.28679 130.676 8.35094C129.294 8.48618 124.048 8.17182 123.379 8.4775C123.289 8.72498 123.253 8.97588 123.238 9.23818C123.153 10.6727 123.239 12.1705 123.239 13.6116L123.241 22.7546C123.24 25.2496 123.306 27.7582 123.24 30.2514C122.018 30.2693 120.794 30.2534 119.572 30.2532C119.648 25.0229 119.595 19.7857 119.595 14.5544L119.598 11.1387C119.603 10.3089 119.711 9.32136 119.535 8.5114C118.772 8.15751 113.433 8.50242 112.066 8.33976C112.058 7.38165 111.909 6.08055 112.164 5.16144Z" fill="#0C0C0C"/>
<path d="M3.55145 5.14777C4.60792 5.12384 5.81855 5.05858 6.87452 5.1674C7.05131 5.18563 7.07818 5.31657 7.14609 5.46158C6.97319 7.39129 7.0161 9.11271 7.01603 11.0439L7.0186 18.3063L7.01742 25.0569C7.0168 26.6131 6.97659 28.283 7.11366 29.8221L7.082 30.2159C6.11867 30.3072 4.55247 30.2485 3.54322 30.2361C3.49366 28.9615 3.52671 27.4603 3.52633 26.1673L3.52522 18.7937C3.52499 14.3988 3.42237 9.50904 3.55145 5.14777Z" fill="#0C0C0C"/>
<path d="M10.156 5.15324C11.7369 5.05928 13.3523 5.1305 14.9384 5.12912C16.1044 5.12812 18.5355 4.97409 19.5861 5.22864C19.6138 5.27234 19.6359 5.3174 19.6544 5.36599C19.7568 5.63463 19.7777 7.97632 19.6644 8.2488C19.5025 8.38497 19.4534 8.37814 19.2521 8.38989C17.2594 8.35036 15.2597 8.38455 13.2662 8.38419C12.2725 8.38398 10.553 8.54899 9.66121 8.24959C9.60177 8.22965 9.59552 8.21918 9.56816 8.15957C9.40409 7.80191 9.50775 5.70181 9.65024 5.31239C9.82022 5.17755 9.94569 5.18419 10.156 5.15324Z" fill="#0C0C0C"/>
<path d="M9.61371 27.1522C13.0678 27.1303 16.5219 27.1316 19.9759 27.1561C19.8854 27.8894 20.2478 29.643 19.77 30.1898C18.6459 30.3568 17.4032 30.259 16.2659 30.2588C14.0241 30.2584 11.7954 30.2698 9.55698 30.1605C9.51212 29.6783 9.40235 27.4844 9.61371 27.1522ZM19.8277 29.2289C19.8608 28.9037 19.9607 28.3541 19.7295 28.0892C19.7084 28.065 19.6879 28.0486 19.66 28.0341C19.6287 28.3941 19.5703 28.7712 19.656 29.1265C19.7179 29.1797 19.7468 29.2127 19.8277 29.2289Z" fill="#0C0C0C"/>
<path d="M19.6581 28.0342C19.6859 28.0487 19.7065 28.0651 19.7275 28.0892C19.9587 28.3542 19.8588 28.9038 19.8258 29.229C19.7449 29.2128 19.7159 29.1797 19.654 29.1266C19.5684 28.7713 19.6268 28.3942 19.6581 28.0342Z" fill="#0C0C0C"/>
<path d="M10.0127 16.058C11.7737 15.9039 13.63 16.0226 15.4031 16.0203C16.3292 16.0191 18.1297 15.8859 18.9322 16.0656C18.9753 16.1085 19.0115 16.1546 19.042 16.208C19.2076 16.4992 19.2097 18.6001 19.1092 18.9765C18.9776 19.1399 18.9672 19.1393 18.7628 19.1775C15.6992 19.1334 12.5645 19.3173 9.51418 19.128C9.53029 18.4402 9.33802 16.8824 9.61896 16.3151C9.71416 16.1229 9.83025 16.1169 10.0127 16.058Z" fill="#0C0C0C"/>
<path d="M7.14645 5.46206C7.15888 5.64636 7.15999 6.34463 7.19297 6.41017C7.2965 5.89284 7.5196 6.22243 7.28782 5.31055C7.47155 5.70889 7.46176 6.61804 7.47488 7.13965C7.41996 9.61734 7.66069 28.5411 7.33233 29.375L7.2672 29.3605L7.18727 29.1301L7.12603 29.1969C7.15554 29.4107 7.22276 29.6524 7.11402 29.8226C6.97695 28.2835 7.01716 26.6135 7.01778 25.0573L7.01896 18.3068L7.01639 11.0444C7.01646 9.11319 6.97355 7.39176 7.14645 5.46206Z" fill="#0C0C0C"/>
<path d="M41.1649 24.0336L41.1986 23.9425L41.0684 23.7664C41.388 22.9766 41.1009 22.0509 41.1068 21.2095C41.1204 19.3003 40.9677 6.32991 41.2875 5.76185C41.3777 5.60165 41.3608 5.35406 41.4405 5.16797C41.5691 6.17858 41.5773 23.7447 41.4728 24.0823L41.3882 24.1566C41.2965 24.1253 41.2259 24.1119 41.1649 24.0336Z" fill="#0E0C0D"/>
<path d="M7.47651 7.13965C7.54095 7.264 7.53303 7.31435 7.5331 7.45194C7.53525 14.8473 7.53372 22.2431 7.5306 29.6383C7.53053 29.8007 7.51623 30.0882 7.44672 30.2248C7.28209 30.2438 7.24598 30.2475 7.08398 30.2163L7.11565 29.8226C7.22438 29.6524 7.15717 29.4107 7.12766 29.1969L7.1889 29.1301L7.26882 29.3605L7.33396 29.375C7.66232 28.5411 7.42158 9.61734 7.47651 7.13965Z" fill="#0C0C0C"/>
<path d="M87.7654 20.9932C87.7925 21.1166 87.8196 21.2609 87.8661 21.382C88.2431 22.3591 88.1432 23.7451 87.83 24.7351C87.8022 24.8237 87.7828 25.0114 87.7696 25.1071C87.7814 24.868 87.7772 24.6202 87.755 24.3818C87.6495 23.2322 87.6911 22.1435 87.7654 20.9932Z" fill="#0C0C0C"/>
<path d="M8.78502 53.5134H4.61133V45.597H5.29182V52.9123H8.78502V53.5134Z" fill="black"/>
<path d="M28.5146 53.5134H27.8L26.9381 51.0523H23.5696L22.7077 53.5134H22.0272L24.8286 45.597H25.7019L28.5146 53.5134ZM26.7566 50.4626L25.7245 47.5138L25.2709 46.2435H25.2255L24.7832 47.5138L23.7398 50.4626H26.7566Z" fill="black"/>
<path d="M47.1941 53.5134L44.0412 48.353L42.9864 46.527H42.9524V53.5134H42.2946V45.597H43.1112L46.2641 50.7574L47.3075 52.5834H47.3416V45.597H47.9994V53.5134H47.1941Z" fill="black"/>
<path d="M67.5088 53.5134L64.3559 48.353L63.3011 46.527H63.2671V53.5134H62.6093V45.597H63.4258L66.5788 50.7574L67.6222 52.5834H67.6562V45.597H68.3141V53.5134H67.5088Z" fill="black"/>
<path d="M85.4985 53.5134H82.5156V52.9464H83.6725V46.1641H82.5156V45.597H85.4985V46.1641H84.3416V52.9464H85.4985V53.5134Z" fill="black"/>
<path d="M102.53 53.6495C101.857 53.6495 101.278 53.4945 100.795 53.1845C100.311 52.8745 99.9363 52.4171 99.6717 51.8122C99.4146 51.1998 99.2861 50.4474 99.2861 49.5552C99.2861 48.663 99.4146 47.9145 99.6717 47.3096C99.9363 46.6972 100.311 46.2359 100.795 45.9259C101.278 45.6159 101.857 45.4609 102.53 45.4609C103.195 45.4609 103.77 45.6159 104.254 45.9259C104.738 46.2359 105.108 46.6972 105.365 47.3096C105.63 47.9145 105.762 48.663 105.762 49.5552C105.762 50.4474 105.63 51.1998 105.365 51.8122C105.108 52.4171 104.738 52.8745 104.254 53.1845C103.77 53.4945 103.195 53.6495 102.53 53.6495ZM102.53 53.0371C103.036 53.0371 103.475 52.9199 103.845 52.6855C104.223 52.4511 104.515 52.1109 104.719 51.6648C104.93 51.2187 105.036 50.6818 105.036 50.0543V49.0562C105.036 48.4286 104.93 47.8918 104.719 47.4457C104.515 46.9996 104.223 46.6594 103.845 46.425C103.475 46.1906 103.036 46.0734 102.53 46.0734C102.023 46.0734 101.581 46.1906 101.203 46.425C100.825 46.6594 100.53 46.9996 100.318 47.4457C100.114 47.8918 100.012 48.4286 100.012 49.0562V50.0543C100.012 50.6818 100.114 51.2187 100.318 51.6648C100.53 52.1109 100.825 52.4511 101.203 52.6855C101.581 52.9199 102.023 53.0371 102.53 53.0371Z" fill="black"/>
<path d="M124.864 53.5134L121.711 48.353L120.657 46.527H120.623V53.5134H119.965V45.597H120.781L123.934 50.7574L124.978 52.5834H125.012V45.597H125.67V53.5134H124.864Z" fill="black"/>
<rect x="3.48828" y="37.5137" width="125.63" height="0.872428" fill="#D9D9D9"/>
<rect x="152.164" y="11.7344" width="1" height="30" fill="black"/>
<g clip-path="url(#clip0_1386_1857)">
<path d="M199.146 31.6691L196.98 33.8838L209.98 47.1764L212.146 44.9618L199.146 31.6691Z" fill="black"/>
<path d="M203.48 27.2395L201.314 29.4541L214.314 42.7467L216.48 40.5321L203.48 27.2395Z" fill="black"/>
<path d="M179.646 11.7219L177.48 13.9365L190.48 27.2292L192.646 25.0145L179.646 11.7219Z" fill="black"/>
<path d="M183.976 7.29708L181.811 9.51172L194.811 22.8044L196.976 20.5897L183.976 7.29708Z" fill="black"/>
<path d="M209.982 7.29818L196.982 20.5908L199.148 22.8055L212.148 9.51281L209.982 7.29818Z" fill="black"/>
<path d="M214.316 11.7191L201.316 25.0117L203.482 27.2264L216.482 13.9337L214.316 11.7191Z" fill="black"/>
<path d="M190.48 27.2376L177.48 40.5303L179.646 42.7449L192.646 29.4523L190.48 27.2376Z" fill="black"/>
<path d="M194.812 31.6634L181.812 44.9561L183.978 47.1707L196.978 33.878L194.812 31.6634Z" fill="black"/>
<path d="M195.448 3.73438H192.385V13.1371H195.448V3.73438Z" fill="black"/>
<path d="M201.581 3.73438H198.518V13.1371H201.581V3.73438Z" fill="black"/>
<path d="M195.448 41.332H192.385V50.7348H195.448V41.332Z" fill="black"/>
<path d="M201.581 41.332H198.518V50.7348H201.581V41.332Z" fill="black"/>
<path d="M219.965 22.5332H210.77V25.6652H219.965V22.5332Z" fill="black"/>
<path d="M219.965 28.8037H210.77V31.9357H219.965V28.8037Z" fill="black"/>
<path d="M183.196 22.5332H174V25.6652H183.196V22.5332Z" fill="black"/>
<path d="M183.196 28.8037H174V31.9357H183.196V28.8037Z" fill="black"/>
<path d="M319.94 36.6946C319.94 36.7354 319.92 36.7354 319.98 36.7354C319.94 36.7354 319.94 36.715 319.94 36.6946ZM317.323 41.3993L316.098 41.91C316.911 43.5032 318.409 44.6334 320.826 44.6334C323.363 44.6334 324.908 43.1219 324.908 41.3108C324.908 39.4997 323.889 38.4989 321.159 37.8861L320.972 37.8452C319.434 37.5048 319.035 37.2733 319.035 36.6946C319.035 36.2452 319.574 35.8026 320.533 35.8026C321.592 35.8026 322.364 36.4222 322.617 37.2256L323.822 36.7763L325.008 36.2861C324.468 34.4545 322.903 33.5218 320.573 33.5218C317.843 33.5218 316.431 35.1218 316.431 36.8444C316.431 38.7576 317.723 39.6768 320.113 40.2487L320.386 40.31C321.991 40.6912 322.238 40.8819 322.238 41.3925C322.238 41.9917 321.652 42.3049 320.759 42.3049C319.674 42.3049 318.888 41.6853 318.489 40.8819L317.323 41.3925V41.3993ZM307.289 38.0359C307.582 36.8035 308.454 36.1022 309.746 36.1022C310.805 36.1022 311.723 36.7627 311.976 38.0359H307.295H307.289ZM314.7 38.7984C314.7 35.7958 312.762 33.5218 309.659 33.5218C306.556 33.5218 304.479 36.0341 304.479 39.0367C304.479 42.0394 306.436 44.6334 309.659 44.6334C311.97 44.6334 313.282 43.7415 314.447 42.2504L312.429 40.7593C311.723 41.6513 310.951 42.1211 309.826 42.1211C308.494 42.1211 307.535 41.3108 307.242 39.9695H314.633C314.693 39.5678 314.693 39.1593 314.693 38.7984M292.799 44.4019H295.549V37.355C295.776 36.9533 296.402 36.1431 297.713 36.1431C299.025 36.1431 299.858 37.1235 299.858 38.3763V44.4019H302.561V38.3763C302.561 35.612 300.936 33.5422 297.813 33.5422C296.981 33.5422 296.189 33.7328 295.543 34.1618V33.7601H292.793V44.4019H292.799ZM280.64 44.4019H283.391V37.355C283.617 36.9533 284.243 36.1431 285.555 36.1431C286.866 36.1431 287.699 37.1235 287.699 38.3763V44.4019H290.402V38.3763C290.402 35.612 288.777 33.5422 285.654 33.5422C284.822 33.5422 284.03 33.7328 283.384 34.1618V33.7601H280.634V44.4019H280.64ZM271.212 38.0359C271.505 36.8035 272.377 36.1022 273.669 36.1022C274.728 36.1022 275.646 36.7627 275.899 38.0359H271.218H271.212ZM278.623 38.7984C278.623 35.7958 276.685 33.5218 273.582 33.5218C270.479 33.5218 268.402 36.0341 268.402 39.0367C268.402 42.0394 270.359 44.6334 273.582 44.6334C275.893 44.6334 277.205 43.7415 278.37 42.2504L276.352 40.7593C275.646 41.6513 274.874 42.1211 273.749 42.1211C272.417 42.1211 271.458 41.3108 271.165 39.9695H278.556C278.616 39.5678 278.616 39.1593 278.616 38.7984M260.738 36.5244V32.8409H262.049C263.361 32.8409 264.233 33.5626 264.253 34.6724C264.233 35.9252 263.381 36.5244 262.049 36.5244H260.738ZM257.994 44.4019H260.744V39.1865H262.016L264.413 44.4019H267.283L264.62 38.6963C266.158 37.8861 266.97 36.2452 266.97 34.6724V34.652C266.97 31.9694 264.739 30.1787 262.495 30.1787H258.001V44.3951L257.994 44.4019Z" fill="black"/>
<path d="M318.529 10.352H321.279L323.363 6.81836H320.406L318.535 10.352H318.529ZM317.59 16.0985C317.883 14.8662 318.755 14.1581 320.047 14.1581C321.105 14.1581 322.024 14.8185 322.277 16.0985H317.596H317.59ZM325.001 16.8679C325.001 13.8653 323.063 11.5912 319.96 11.5912C316.857 11.5912 314.773 14.1036 314.773 17.1062C314.773 20.1088 316.731 22.7029 319.96 22.7029C322.271 22.7029 323.583 21.811 324.748 20.3199L322.73 18.8288C322.024 19.7207 321.252 20.1905 320.127 20.1905C318.795 20.1905 317.836 19.3803 317.543 18.039H324.934C324.994 17.6373 324.994 17.2288 324.994 16.8679M308.367 22.4646H311.031V14.3964H313.927V11.8227H311.031V8.5886H308.367V11.8227H306.283V14.3964H308.367V22.4646ZM301.835 9.80054H304.585V6.90687H301.835V9.80054ZM301.875 22.4646H304.539V11.8227H301.875V22.4646ZM294.69 14.7572C294.69 14.7981 294.67 14.7981 294.73 14.7981C294.69 14.7981 294.69 14.7777 294.69 14.7572ZM292.067 19.462L290.842 19.9726C291.654 21.5659 293.152 22.6961 295.569 22.6961C298.106 22.6961 299.651 21.1846 299.651 19.3735C299.651 17.5624 298.632 16.5615 295.902 15.9487L295.716 15.9079C294.178 15.5675 293.778 15.336 293.778 14.7572C293.778 14.3079 294.317 13.8653 295.276 13.8653C296.335 13.8653 297.107 14.4849 297.36 15.2883L298.566 14.8389L299.751 14.3487C299.212 12.5172 297.647 11.5844 295.316 11.5844C292.586 11.5844 291.174 13.1844 291.174 14.907C291.174 16.8202 292.466 17.7394 294.857 18.3113L295.13 18.3726C296.735 18.7539 296.981 18.9445 296.981 19.4552C296.981 20.0543 296.395 20.3675 295.503 20.3675C294.417 20.3675 293.632 19.748 293.232 18.9445L292.067 19.4552V19.462ZM283.723 22.4646H286.513V15.3972L289.716 14.1172V11.3529L286.513 12.6057V11.8159H283.723V22.4578V22.4646ZM274.248 16.0985C274.541 14.8662 275.413 14.1581 276.705 14.1581C277.764 14.1581 278.683 14.8185 278.936 16.0985H274.255H274.248ZM281.659 16.8679C281.659 13.8653 279.721 11.5912 276.619 11.5912C273.516 11.5912 271.438 14.1036 271.438 17.1062C271.438 20.1088 273.396 22.7029 276.619 22.7029C278.929 22.7029 280.241 21.811 281.406 20.3199L279.389 18.8288C278.683 19.7207 277.91 20.1905 276.785 20.1905C275.453 20.1905 274.494 19.3803 274.201 18.039H281.593C281.653 17.6373 281.653 17.2288 281.653 16.8679M266.67 22.4646L270.586 11.8227H267.736L265.172 18.7811L262.442 11.8227H259.592L263.82 22.4646H266.67ZM255.264 9.80054H258.014V6.90687H255.264V9.80054ZM255.304 22.4646H257.967V11.8227H255.304V22.4646ZM243.065 22.4646H245.815V15.4177C246.042 15.016 246.668 14.2057 247.979 14.2057C249.291 14.2057 250.123 15.1862 250.123 16.439V22.4646H252.827V16.439C252.827 13.6747 251.202 11.6048 248.079 11.6048C247.247 11.6048 246.454 11.7955 245.809 12.2244V11.8227H243.059V22.4646H243.065ZM229.162 8.24817V16.8271C229.162 20.3199 231.326 22.6825 234.802 22.6825C238.278 22.6825 240.462 20.3199 240.462 16.8271V8.24817H237.712V16.8271C237.712 18.7403 236.626 19.9114 234.795 19.9114C232.964 19.9114 231.898 18.7403 231.898 16.8271V8.24817H229.148H229.162Z" fill="black"/>
<path d="M244.169 38.036C244.462 36.8037 245.334 36.1024 246.626 36.1024C247.685 36.1024 248.604 36.7628 248.857 38.036H244.176H244.169ZM251.58 38.7986C251.58 35.796 249.642 33.5219 246.539 33.5219C243.436 33.5219 241.359 36.0343 241.359 39.0369C241.359 42.0395 243.317 44.6336 246.539 44.6336C248.85 44.6336 250.162 43.7417 251.327 42.2506L249.309 40.7595C248.604 41.6514 247.831 42.1212 246.706 42.1212C245.374 42.1212 244.415 41.311 244.122 39.9697H251.514C251.573 39.568 251.573 39.1595 251.573 38.7986M231.904 39.0777C231.904 37.1849 233.215 36.116 234.8 36.116C235.526 36.116 236.278 36.3951 236.904 36.7969V41.1816C236.365 41.6923 235.739 42.0327 234.76 42.0327C233.242 42.0327 231.91 40.9706 231.91 39.0709M236.904 44.4021H239.694V28.7559H236.904V34.053C236.112 33.7125 235.319 33.5219 234.487 33.5219C231.491 33.5219 229.16 35.8028 229.16 39.0777C229.16 42.3527 231.284 44.6336 234.487 44.6336C235.24 44.6336 236.045 44.4838 236.904 43.9527V44.4021Z" fill="black"/>
</g>
<defs>
<clipPath id="clip0_1386_1857">
<rect width="151" height="47" fill="white" transform="translate(174 3.73438)"/>
</clipPath>
</defs>
</svg>
