<?xml version="1.0" encoding="UTF-8"?>
<svg id="Calque_2" data-name="Calque 2" xmlns="http://www.w3.org/2000/svg" viewBox="0 0 279.25 185.37">
  <defs>
    <style>
      .cls-1 {
        fill: #fff;
      }
    </style>
  </defs>
  <g id="Calque_1-2" data-name="Calque 1">
    <g>
      <g>
        <path class="cls-1" d="M43.29,42.92c-3.55-3.35-5.51-4.43-10.73-4.43-7.87,0-14.76,6.89-14.76,14.76s6.89,14.76,14.76,14.76c5.22,0,7.18-1.08,10.73-4.33l11.42,12.01c-5.71,5.51-13.59,8.76-22.15,8.76-17.22,0-31.1-13.98-31.1-31.2s13.88-31.11,31.1-31.11c8.56,0,16.44,3.25,22.15,8.76l-11.42,12.01Z"/>
        <path class="cls-1" d="M124.69,63.98l11.52,11.42-11.52,11.52-10.33-10.43c-5.51,4.92-12.89,7.97-20.87,7.97-17.22,0-31.1-13.98-31.1-31.2s13.88-31.11,31.1-31.11c5.51,0,10.43,1.38,14.76,3.84V4.04h16.44v59.94ZM93.49,68.01c7.97,0,14.76-6.79,14.76-14.76s-6.79-14.76-14.76-14.76-14.76,6.89-14.76,14.76,6.89,14.76,14.76,14.76Z"/>
        <path class="cls-1" d="M157.18,63.98c1.38,6.79,7.38,12.31,14.47,12.31h2.46v16.34h-2.46c-17.22,0-31.1-13.88-31.1-31.11v-8.27c0-17.23,13.88-31.11,31.1-31.11s31.2,13.88,31.2,31.11v10.73h-45.67ZM185.14,47.54c-2.27-5.22-7.38-9.05-13.49-9.05s-11.12,3.84-13.58,9.05h27.07Z"/>
        <path class="cls-1" d="M217.13,40.95v-8.17c0-17.23,14.47-30.32,31.2-30.32h2.46v16.34h-2.46c-7.97,0-14.76,6.6-14.76,13.98v8.17h17.23v16.44h-17.23v12.3c0,17.22-13.98,31.2-31.2,31.2h-2.46v-16.44h2.46c7.97,0,14.76-6.79,14.76-14.76v-12.3h-8.17v-16.44h8.17Z"/>
        <path class="cls-1" d="M279.25,9.84c0,5.41-4.43,9.84-9.84,9.84s-9.84-4.43-9.84-9.84,4.33-9.84,9.84-9.84,9.84,4.33,9.84,9.84ZM277.57,24.61v57.38h-16.44V24.61h16.44Z"/>
      </g>
      <g>
        <path class="cls-1" d="M12.24,128.14c-.72.36-2.15.72-3.98.72-4.25,0-7.45-2.68-7.45-7.63s3.2-7.92,7.87-7.92c1.88,0,3.06.4,3.58.67l-.47,1.59c-.74-.36-1.79-.63-3.04-.63-3.53,0-5.88,2.26-5.88,6.22,0,3.69,2.12,6.06,5.79,6.06,1.19,0,2.39-.25,3.18-.63l.4,1.54Z"/>
        <path class="cls-1" d="M24.16,123.13c0,4-2.77,5.75-5.39,5.75-2.93,0-5.19-2.15-5.19-5.57,0-3.62,2.37-5.75,5.37-5.75s5.21,2.26,5.21,5.57ZM15.57,123.24c0,2.37,1.36,4.16,3.29,4.16s3.29-1.77,3.29-4.21c0-1.83-.92-4.16-3.24-4.16s-3.33,2.15-3.33,4.21Z"/>
        <path class="cls-1" d="M26.65,120.74c0-1.12-.02-2.04-.09-2.93h1.74l.11,1.79h.04c.54-1.03,1.79-2.04,3.58-2.04,1.5,0,3.83.9,3.83,4.61v6.46h-1.97v-6.24c0-1.75-.65-3.2-2.51-3.2-1.3,0-2.3.92-2.64,2.01-.09.25-.13.58-.13.92v6.51h-1.97v-7.9Z"/>
        <path class="cls-1" d="M39.27,128.63v-9.33h-1.52v-1.5h1.52v-.51c0-1.52.34-2.91,1.25-3.78.74-.72,1.72-1.01,2.64-1.01.69,0,1.3.16,1.68.31l-.27,1.52c-.29-.13-.69-.25-1.25-.25-1.68,0-2.1,1.48-2.1,3.13v.58h2.62v1.5h-2.62v9.33h-1.95Z"/>
        <path class="cls-1" d="M46.4,123.58c.04,2.66,1.75,3.76,3.71,3.76,1.41,0,2.26-.25,3-.56l.34,1.41c-.69.31-1.88.67-3.6.67-3.33,0-5.32-2.19-5.32-5.46s1.92-5.84,5.08-5.84c3.53,0,4.47,3.11,4.47,5.1,0,.4-.04.72-.07.92h-7.61ZM52.18,122.17c.02-1.25-.51-3.2-2.73-3.2-1.99,0-2.86,1.83-3.02,3.2h5.75ZM52.65,113.13l-2.73,3.2h-1.41l1.97-3.2h2.17Z"/>
        <path class="cls-1" d="M56.52,121.18c0-1.27-.02-2.37-.09-3.38h1.72l.07,2.12h.09c.49-1.45,1.68-2.37,3-2.37.22,0,.38.02.56.07v1.86c-.2-.04-.4-.07-.67-.07-1.39,0-2.37,1.05-2.64,2.53-.04.27-.09.58-.09.92v5.77h-1.95v-7.45Z"/>
        <path class="cls-1" d="M64.71,123.58c.04,2.66,1.74,3.76,3.71,3.76,1.41,0,2.26-.25,3-.56l.34,1.41c-.69.31-1.88.67-3.6.67-3.33,0-5.32-2.19-5.32-5.46s1.92-5.84,5.08-5.84c3.53,0,4.47,3.11,4.47,5.1,0,.4-.04.72-.07.92h-7.61ZM70.48,122.17c.02-1.25-.51-3.2-2.73-3.2-1.99,0-2.86,1.83-3.02,3.2h5.75Z"/>
        <path class="cls-1" d="M74.82,120.74c0-1.12-.02-2.04-.09-2.93h1.74l.11,1.79h.04c.54-1.03,1.79-2.04,3.58-2.04,1.5,0,3.83.9,3.83,4.61v6.46h-1.97v-6.24c0-1.75-.65-3.2-2.51-3.2-1.3,0-2.3.92-2.64,2.01-.09.25-.13.58-.13.92v6.51h-1.97v-7.9Z"/>
        <path class="cls-1" d="M94.96,128.23c-.51.27-1.66.63-3.11.63-3.27,0-5.39-2.21-5.39-5.53s2.28-5.75,5.82-5.75c1.16,0,2.19.29,2.73.56l-.45,1.52c-.47-.27-1.21-.51-2.28-.51-2.48,0-3.83,1.83-3.83,4.09,0,2.5,1.61,4.05,3.76,4.05,1.12,0,1.86-.29,2.42-.54l.34,1.48Z"/>
        <path class="cls-1" d="M98.22,123.58c.04,2.66,1.74,3.76,3.71,3.76,1.41,0,2.26-.25,3-.56l.34,1.41c-.69.31-1.88.67-3.6.67-3.33,0-5.32-2.19-5.32-5.46s1.92-5.84,5.08-5.84c3.53,0,4.47,3.11,4.47,5.1,0,.4-.04.72-.07.92h-7.61ZM104,122.17c.02-1.25-.51-3.2-2.73-3.2-1.99,0-2.86,1.83-3.02,3.2h5.75Z"/>
        <path class="cls-1" d="M122.43,112.75v13.09c0,.96.02,2.06.09,2.8h-1.77l-.09-1.88h-.04c-.6,1.21-1.92,2.12-3.69,2.12-2.62,0-4.63-2.21-4.63-5.5-.02-3.6,2.21-5.82,4.85-5.82,1.66,0,2.77.78,3.27,1.66h.04v-6.46h1.97ZM120.46,122.21c0-.25-.02-.58-.09-.83-.29-1.25-1.36-2.28-2.84-2.28-2.04,0-3.24,1.79-3.24,4.18,0,2.19,1.07,4,3.2,4,1.32,0,2.53-.87,2.89-2.35.07-.27.09-.54.09-.85v-1.88Z"/>
        <path class="cls-1" d="M126.8,123.58c.04,2.66,1.75,3.76,3.71,3.76,1.41,0,2.26-.25,3-.56l.34,1.41c-.69.31-1.88.67-3.6.67-3.33,0-5.32-2.19-5.32-5.46s1.92-5.84,5.08-5.84c3.53,0,4.47,3.11,4.47,5.1,0,.4-.04.72-.07.92h-7.61ZM132.57,122.17c.02-1.25-.51-3.2-2.73-3.2-1.99,0-2.86,1.83-3.02,3.2h5.75Z"/>
        <path class="cls-1" d="M136.64,126.62c.58.38,1.61.78,2.59.78,1.43,0,2.1-.72,2.1-1.61,0-.94-.56-1.45-2.01-1.99-1.95-.69-2.86-1.77-2.86-3.06,0-1.75,1.41-3.18,3.74-3.18,1.1,0,2.06.31,2.66.67l-.49,1.43c-.43-.27-1.21-.63-2.21-.63-1.16,0-1.81.67-1.81,1.48,0,.89.65,1.3,2.06,1.83,1.88.72,2.84,1.66,2.84,3.27,0,1.9-1.48,3.24-4.05,3.24-1.19,0-2.28-.29-3.04-.74l.49-1.5Z"/>
        <path class="cls-1" d="M150.58,113.76c1.19-.18,2.59-.31,4.14-.31,2.8,0,4.79.65,6.11,1.88,1.34,1.23,2.13,2.97,2.13,5.41s-.76,4.47-2.17,5.86c-1.41,1.41-3.74,2.17-6.67,2.17-1.39,0-2.55-.07-3.53-.18v-14.83ZM152.53,127.09c.49.09,1.21.11,1.97.11,4.16,0,6.42-2.33,6.42-6.4.02-3.56-1.99-5.82-6.11-5.82-1.01,0-1.77.09-2.28.2v11.9Z"/>
        <path class="cls-1" d="M167.61,114.76c.02.67-.47,1.21-1.25,1.21-.69,0-1.19-.54-1.19-1.21s.51-1.23,1.23-1.23,1.21.54,1.21,1.23ZM165.41,128.63v-10.83h1.97v10.83h-1.97Z"/>
        <path class="cls-1" d="M170.65,121.18c0-1.27-.02-2.37-.09-3.38h1.72l.07,2.12h.09c.49-1.45,1.68-2.37,3-2.37.22,0,.38.02.56.07v1.86c-.2-.04-.4-.07-.67-.07-1.39,0-2.37,1.05-2.64,2.53-.04.27-.09.58-.09.92v5.77h-1.95v-7.45Z"/>
        <path class="cls-1" d="M178.84,123.58c.04,2.66,1.74,3.76,3.71,3.76,1.41,0,2.26-.25,3-.56l.34,1.41c-.69.31-1.88.67-3.6.67-3.33,0-5.32-2.19-5.32-5.46s1.92-5.84,5.08-5.84c3.53,0,4.47,3.11,4.47,5.1,0,.4-.04.72-.07.92h-7.61ZM184.61,122.17c.02-1.25-.51-3.2-2.73-3.2-1.99,0-2.86,1.83-3.02,3.2h5.75Z"/>
        <path class="cls-1" d="M196.67,128.23c-.51.27-1.66.63-3.11.63-3.27,0-5.39-2.21-5.39-5.53s2.28-5.75,5.82-5.75c1.16,0,2.19.29,2.73.56l-.45,1.52c-.47-.27-1.21-.51-2.28-.51-2.48,0-3.83,1.83-3.83,4.09,0,2.5,1.61,4.05,3.76,4.05,1.12,0,1.86-.29,2.42-.54l.34,1.48Z"/>
        <path class="cls-1" d="M201.64,114.7v3.11h2.82v1.5h-2.82v5.84c0,1.34.38,2.1,1.48,2.1.51,0,.89-.07,1.14-.13l.09,1.48c-.38.16-.98.27-1.75.27-.92,0-1.66-.29-2.12-.83-.56-.58-.76-1.54-.76-2.82v-5.91h-1.68v-1.5h1.68v-2.59l1.92-.51Z"/>
        <path class="cls-1" d="M207.64,123.58c.04,2.66,1.74,3.76,3.71,3.76,1.41,0,2.26-.25,3-.56l.34,1.41c-.69.31-1.88.67-3.6.67-3.33,0-5.32-2.19-5.32-5.46s1.92-5.84,5.08-5.84c3.53,0,4.47,3.11,4.47,5.1,0,.4-.04.72-.07.92h-7.61ZM213.41,122.17c.02-1.25-.51-3.2-2.73-3.2-1.99,0-2.86,1.83-3.02,3.2h5.75Z"/>
        <path class="cls-1" d="M226.81,125.68c0,1.12.02,2.1.09,2.95h-1.75l-.11-1.77h-.04c-.51.87-1.66,2.01-3.58,2.01-1.7,0-3.74-.94-3.74-4.74v-6.33h1.97v6c0,2.06.63,3.45,2.42,3.45,1.32,0,2.24-.92,2.59-1.79.11-.29.18-.65.18-1.01v-6.64h1.97v7.87Z"/>
        <path class="cls-1" d="M230.08,121.18c0-1.27-.02-2.37-.09-3.38h1.72l.07,2.12h.09c.49-1.45,1.68-2.37,3-2.37.22,0,.38.02.56.07v1.86c-.2-.04-.4-.07-.67-.07-1.39,0-2.37,1.05-2.64,2.53-.04.27-.09.58-.09.92v5.77h-1.95v-7.45Z"/>
        <path class="cls-1" d="M237.13,126.62c.58.38,1.61.78,2.59.78,1.43,0,2.1-.72,2.1-1.61,0-.94-.56-1.45-2.01-1.99-1.95-.69-2.86-1.77-2.86-3.06,0-1.75,1.41-3.18,3.74-3.18,1.1,0,2.06.31,2.66.67l-.49,1.43c-.42-.27-1.21-.63-2.21-.63-1.16,0-1.81.67-1.81,1.48,0,.89.65,1.3,2.06,1.83,1.88.72,2.84,1.66,2.84,3.27,0,1.9-1.48,3.24-4.05,3.24-1.19,0-2.28-.29-3.04-.74l.49-1.5Z"/>
        <path class="cls-1" d="M10.98,138.32v13.09c0,.96.02,2.06.09,2.8h-1.77l-.09-1.88h-.04c-.6,1.21-1.92,2.12-3.69,2.12-2.62,0-4.63-2.21-4.63-5.5-.02-3.6,2.21-5.82,4.85-5.82,1.66,0,2.77.78,3.27,1.66h.04v-6.46h1.97ZM9.01,147.78c0-.25-.02-.58-.09-.83-.29-1.25-1.36-2.28-2.84-2.28-2.04,0-3.24,1.79-3.24,4.18,0,2.19,1.07,4,3.2,4,1.32,0,2.53-.87,2.89-2.35.07-.27.09-.54.09-.85v-1.88Z"/>
        <path class="cls-1" d="M15.35,149.15c.04,2.66,1.75,3.76,3.71,3.76,1.41,0,2.26-.25,3-.56l.34,1.41c-.69.31-1.88.67-3.6.67-3.33,0-5.32-2.19-5.32-5.46s1.92-5.84,5.08-5.84c3.53,0,4.47,3.11,4.47,5.1,0,.4-.04.72-.07.92h-7.61ZM21.12,147.74c.02-1.25-.51-3.2-2.73-3.2-1.99,0-2.86,1.83-3.02,3.2h5.75Z"/>
        <path class="cls-1" d="M25.19,152.19c.58.38,1.61.78,2.59.78,1.43,0,2.1-.72,2.1-1.61,0-.94-.56-1.45-2.01-1.99-1.95-.69-2.86-1.77-2.86-3.06,0-1.75,1.41-3.18,3.74-3.18,1.1,0,2.06.31,2.66.67l-.49,1.43c-.43-.27-1.21-.63-2.21-.63-1.16,0-1.81.67-1.81,1.48,0,.89.65,1.3,2.06,1.83,1.88.72,2.84,1.66,2.84,3.27,0,1.9-1.48,3.24-4.05,3.24-1.19,0-2.28-.29-3.04-.74l.49-1.5Z"/>
        <path class="cls-1" d="M46.94,147.14h-5.86v5.44h6.53v1.63h-8.48v-15.08h8.14v1.63h-6.2v4.76h5.86v1.61ZM46.56,135.71l-2.84,2.62h-1.61l2.08-2.62h2.37Z"/>
        <path class="cls-1" d="M57.7,153.8c-.51.27-1.66.63-3.11.63-3.27,0-5.39-2.21-5.39-5.53s2.28-5.75,5.82-5.75c1.16,0,2.19.29,2.73.56l-.45,1.52c-.47-.27-1.21-.51-2.28-.51-2.48,0-3.83,1.83-3.83,4.09,0,2.5,1.61,4.05,3.76,4.05,1.12,0,1.86-.29,2.42-.54l.34,1.48Z"/>
        <path class="cls-1" d="M69.67,148.7c0,4-2.77,5.75-5.39,5.75-2.93,0-5.19-2.15-5.19-5.57,0-3.62,2.37-5.75,5.37-5.75s5.21,2.26,5.21,5.57ZM61.08,148.81c0,2.37,1.36,4.16,3.29,4.16s3.29-1.77,3.29-4.21c0-1.83-.92-4.16-3.24-4.16s-3.33,2.15-3.33,4.21Z"/>
        <path class="cls-1" d="M72.16,138.32h1.97v15.88h-1.97v-15.88Z"/>
        <path class="cls-1" d="M78.53,149.15c.04,2.66,1.74,3.76,3.71,3.76,1.41,0,2.26-.25,3-.56l.34,1.41c-.69.31-1.88.67-3.6.67-3.33,0-5.32-2.19-5.32-5.46s1.92-5.84,5.08-5.84c3.53,0,4.47,3.11,4.47,5.1,0,.4-.04.72-.07.92h-7.61ZM84.31,147.74c.02-1.25-.51-3.2-2.73-3.2-1.99,0-2.86,1.83-3.02,3.2h5.75Z"/>
        <path class="cls-1" d="M88.38,152.19c.58.38,1.61.78,2.59.78,1.43,0,2.1-.72,2.1-1.61,0-.94-.56-1.45-2.01-1.99-1.95-.69-2.86-1.77-2.86-3.06,0-1.75,1.41-3.18,3.74-3.18,1.1,0,2.06.31,2.66.67l-.49,1.43c-.43-.27-1.21-.63-2.21-.63-1.16,0-1.81.67-1.81,1.48,0,.89.65,1.3,2.06,1.83,1.88.72,2.84,1.66,2.84,3.27,0,1.9-1.48,3.24-4.05,3.24-1.19,0-2.28-.29-3.04-.74l.49-1.5Z"/>
        <path class="cls-1" d="M102.32,139.13h8.12v1.63h-6.17v5.01h5.7v1.61h-5.7v6.82h-1.95v-15.08Z"/>
        <path class="cls-1" d="M112.57,146.76c0-1.27-.02-2.37-.09-3.38h1.72l.07,2.12h.09c.49-1.45,1.68-2.37,3-2.37.22,0,.38.02.56.07v1.86c-.2-.04-.4-.07-.67-.07-1.39,0-2.37,1.05-2.64,2.53-.04.27-.09.58-.09.92v5.77h-1.95v-7.45Z"/>
        <path class="cls-1" d="M125.77,154.2l-.16-1.36h-.07c-.6.85-1.77,1.61-3.31,1.61-2.19,0-3.31-1.54-3.31-3.11,0-2.62,2.33-4.05,6.51-4.03v-.22c0-.89-.25-2.51-2.46-2.51-1.01,0-2.06.31-2.82.81l-.45-1.3c.89-.58,2.19-.96,3.56-.96,3.31,0,4.12,2.26,4.12,4.43v4.05c0,.94.04,1.86.18,2.59h-1.79ZM125.48,148.68c-2.15-.04-4.59.34-4.59,2.44,0,1.28.85,1.88,1.86,1.88,1.41,0,2.3-.89,2.62-1.81.07-.2.11-.43.11-.63v-1.88Z"/>
        <path class="cls-1" d="M130.56,146.31c0-1.12-.02-2.04-.09-2.93h1.74l.11,1.79h.04c.54-1.03,1.79-2.04,3.58-2.04,1.5,0,3.83.9,3.83,4.61v6.46h-1.97v-6.24c0-1.75-.65-3.2-2.51-3.2-1.3,0-2.3.92-2.64,2.01-.09.25-.13.58-.13.92v6.51h-1.97v-7.9Z"/>
        <path class="cls-1" d="M150.69,153.8c-.47.25-1.5.58-2.8.63l-.58.89c.83.11,1.57.69,1.57,1.54,0,1.32-1.1,1.81-2.33,1.81-.56,0-1.14-.16-1.52-.38l.34-.96c.36.22.81.33,1.21.33.49,0,.96-.18.96-.72-.02-.58-.69-.85-1.74-.94l.94-1.63c-2.77-.36-4.54-2.46-4.54-5.48,0-3.33,2.28-5.75,5.82-5.75,1.16,0,2.19.29,2.73.56l-.45,1.52c-.47-.27-1.21-.51-2.28-.51-2.48,0-3.83,1.83-3.83,4.09,0,2.5,1.61,4.05,3.76,4.05,1.12,0,1.86-.29,2.42-.54l.34,1.48Z"/>
        <path class="cls-1" d="M158.99,154.2l-.16-1.36h-.07c-.6.85-1.77,1.61-3.31,1.61-2.19,0-3.31-1.54-3.31-3.11,0-2.62,2.33-4.05,6.51-4.03v-.22c0-.89-.25-2.51-2.46-2.51-1.01,0-2.06.31-2.82.81l-.45-1.3c.89-.58,2.19-.96,3.56-.96,3.31,0,4.12,2.26,4.12,4.43v4.05c0,.94.04,1.86.18,2.59h-1.79ZM158.7,148.68c-2.15-.04-4.59.34-4.59,2.44,0,1.28.85,1.88,1.86,1.88,1.41,0,2.3-.89,2.62-1.81.07-.2.11-.43.11-.63v-1.88Z"/>
        <path class="cls-1" d="M165.97,140.34c.02.67-.47,1.21-1.25,1.21-.69,0-1.19-.54-1.19-1.21s.51-1.23,1.23-1.23,1.21.54,1.21,1.23ZM163.78,154.2v-10.83h1.97v10.83h-1.97Z"/>
        <path class="cls-1" d="M168.75,152.19c.58.38,1.61.78,2.59.78,1.43,0,2.1-.72,2.1-1.61,0-.94-.56-1.45-2.01-1.99-1.95-.69-2.86-1.77-2.86-3.06,0-1.75,1.41-3.18,3.74-3.18,1.1,0,2.06.31,2.66.67l-.49,1.43c-.42-.27-1.21-.63-2.21-.63-1.16,0-1.81.67-1.81,1.48,0,.89.65,1.3,2.06,1.83,1.88.72,2.84,1.66,2.84,3.27,0,1.9-1.48,3.24-4.05,3.24-1.19,0-2.28-.29-3.04-.74l.49-1.5Z"/>
        <path class="cls-1" d="M178.97,149.15c.04,2.66,1.74,3.76,3.71,3.76,1.41,0,2.26-.25,3-.56l.34,1.41c-.69.31-1.88.67-3.6.67-3.33,0-5.32-2.19-5.32-5.46s1.92-5.84,5.08-5.84c3.53,0,4.47,3.11,4.47,5.1,0,.4-.04.72-.07.92h-7.61ZM184.74,147.74c.02-1.25-.51-3.2-2.73-3.2-1.99,0-2.86,1.83-3.02,3.2h5.75Z"/>
        <path class="cls-1" d="M188.82,152.19c.58.38,1.61.78,2.59.78,1.43,0,2.1-.72,2.1-1.61,0-.94-.56-1.45-2.01-1.99-1.95-.69-2.86-1.77-2.86-3.06,0-1.75,1.41-3.18,3.74-3.18,1.1,0,2.06.31,2.66.67l-.49,1.43c-.42-.27-1.21-.63-2.21-.63-1.16,0-1.81.67-1.81,1.48,0,.89.65,1.3,2.06,1.83,1.88.72,2.84,1.66,2.84,3.27,0,1.9-1.48,3.24-4.05,3.24-1.19,0-2.28-.29-3.04-.74l.49-1.5Z"/>
        <path class="cls-1" d="M10.98,163.89v13.09c0,.96.02,2.06.09,2.8h-1.77l-.09-1.88h-.04c-.6,1.21-1.92,2.12-3.69,2.12-2.62,0-4.63-2.21-4.63-5.5-.02-3.6,2.21-5.82,4.85-5.82,1.66,0,2.77.78,3.27,1.66h.04v-6.46h1.97ZM9.01,173.36c0-.25-.02-.58-.09-.83-.29-1.25-1.36-2.28-2.84-2.28-2.04,0-3.24,1.79-3.24,4.18,0,2.19,1.07,4,3.2,4,1.32,0,2.53-.87,2.89-2.35.07-.27.09-.54.09-.85v-1.88Z"/>
        <path class="cls-1" d="M16.87,164.45c-.51,1.88-1.48,4.27-2.1,5.3l-1.25.16c.49-1.32,1.07-3.65,1.32-5.26l2.04-.2Z"/>
        <path class="cls-1" d="M21.03,164.7v15.08h-1.95v-15.08h1.95Z"/>
        <path class="cls-1" d="M24.59,171.88c0-1.12-.02-2.04-.09-2.93h1.74l.11,1.79h.04c.54-1.03,1.79-2.04,3.58-2.04,1.5,0,3.83.9,3.83,4.61v6.46h-1.97v-6.24c0-1.75-.65-3.2-2.51-3.2-1.3,0-2.3.92-2.64,2.01-.09.25-.13.58-.13.92v6.51h-1.97v-7.9Z"/>
        <path class="cls-1" d="M46.33,168.95c-.04.78-.09,1.66-.09,2.98v6.29c0,2.48-.49,4-1.54,4.94-1.05.98-2.57,1.3-3.94,1.3s-2.73-.31-3.6-.89l.49-1.5c.72.45,1.83.85,3.18.85,2.01,0,3.49-1.05,3.49-3.78v-1.21h-.04c-.6,1.01-1.77,1.81-3.44,1.81-2.68,0-4.61-2.28-4.61-5.28,0-3.67,2.39-5.75,4.88-5.75,1.88,0,2.91.98,3.38,1.88h.04l.09-1.63h1.72ZM44.3,173.22c0-.33-.02-.63-.11-.89-.36-1.14-1.32-2.08-2.75-2.08-1.88,0-3.22,1.59-3.22,4.09,0,2.12,1.07,3.89,3.2,3.89,1.21,0,2.3-.76,2.73-2.01.11-.34.16-.72.16-1.05v-1.95Z"/>
        <path class="cls-1" d="M50.61,174.72c.04,2.66,1.74,3.76,3.71,3.76,1.41,0,2.26-.25,3-.56l.34,1.41c-.69.31-1.88.67-3.6.67-3.33,0-5.32-2.19-5.32-5.46s1.92-5.84,5.08-5.84c3.53,0,4.47,3.11,4.47,5.1,0,.4-.04.72-.07.92h-7.61ZM56.38,173.31c.02-1.25-.51-3.2-2.73-3.2-1.99,0-2.86,1.83-3.02,3.2h5.75ZM56.85,164.27l-2.73,3.2h-1.41l1.97-3.2h2.17Z"/>
        <path class="cls-1" d="M60.72,171.88c0-1.12-.02-2.04-.09-2.93h1.74l.11,1.79h.04c.54-1.03,1.79-2.04,3.58-2.04,1.5,0,3.83.9,3.83,4.61v6.46h-1.97v-6.24c0-1.75-.65-3.2-2.51-3.2-1.3,0-2.3.92-2.64,2.01-.09.25-.13.58-.13.92v6.51h-1.97v-7.9Z"/>
        <path class="cls-1" d="M75.33,165.91c.02.67-.47,1.21-1.25,1.21-.69,0-1.19-.54-1.19-1.21s.51-1.23,1.23-1.23,1.21.54,1.21,1.23ZM73.14,179.78v-10.83h1.97v10.83h-1.97Z"/>
        <path class="cls-1" d="M79.47,174.72c.04,2.66,1.75,3.76,3.71,3.76,1.41,0,2.26-.25,3-.56l.34,1.41c-.69.31-1.88.67-3.6.67-3.33,0-5.32-2.19-5.32-5.46s1.92-5.84,5.08-5.84c3.53,0,4.47,3.11,4.47,5.1,0,.4-.04.72-.07.92h-7.61ZM85.24,173.31c.02-1.25-.51-3.2-2.73-3.2-1.99,0-2.86,1.83-3.02,3.2h5.75Z"/>
        <path class="cls-1" d="M98.65,176.82c0,1.12.02,2.1.09,2.95h-1.75l-.11-1.77h-.04c-.51.87-1.66,2.01-3.58,2.01-1.7,0-3.74-.94-3.74-4.74v-6.33h1.97v6c0,2.06.63,3.45,2.42,3.45,1.32,0,2.24-.92,2.59-1.79.11-.29.18-.65.18-1.01v-6.64h1.97v7.87Z"/>
        <path class="cls-1" d="M101.92,172.33c0-1.27-.02-2.37-.09-3.38h1.72l.07,2.12h.09c.49-1.45,1.68-2.37,3-2.37.22,0,.38.02.56.07v1.86c-.2-.04-.4-.07-.67-.07-1.39,0-2.37,1.05-2.64,2.53-.04.27-.09.58-.09.92v5.77h-1.95v-7.45Z"/>
        <path class="cls-1" d="M108.96,177.76c.58.38,1.61.78,2.59.78,1.43,0,2.1-.72,2.1-1.61,0-.94-.56-1.45-2.01-1.99-1.95-.69-2.86-1.77-2.86-3.06,0-1.75,1.41-3.18,3.74-3.18,1.1,0,2.06.31,2.66.67l-.49,1.43c-.43-.27-1.21-.63-2.21-.63-1.16,0-1.81.67-1.81,1.48,0,.89.65,1.3,2.06,1.83,1.88.72,2.84,1.66,2.84,3.27,0,1.9-1.48,3.24-4.05,3.24-1.19,0-2.28-.29-3.04-.74l.49-1.5Z"/>
      </g>
    </g>
  </g>
</svg>