<?xml version="1.0" encoding="UTF-8"?>
<svg id="Calque_2" data-name="Calque 2" xmlns="http://www.w3.org/2000/svg" viewBox="0 0 575.45 189.6">
  <defs>
    <style>
      .cls-1 {
        fill: #fff;
      }
    </style>
  </defs>
  <g id="Calque_1-2" data-name="Calque 1">
    <g>
      <path class="cls-1" d="M189.7,85.3h-1.36s-34.51,0-34.51,0c-2.18-13.47-8.84-25.71-19.15-34.94-11.92-10.68-27.29-16.07-43.27-15.19-15.98.88-30.66,7.93-41.34,19.85-10.68,11.92-16.07,27.29-15.19,43.27,1.75,31.87,28.24,56.62,59.79,56.62,1.1,0,2.22-.03,3.33-.09,16.29-.9,31.17-8.17,41.9-20.49l-14.56-12.67c-7.27,8.35-17.35,13.28-28.4,13.89-22.36,1.24-41.56-15.96-42.79-38.32-.6-10.83,3.06-21.25,10.3-29.33,7.24-8.08,17.19-12.86,28.02-13.46,10.83-.59,21.25,3.06,29.33,10.3,6.18,5.54,10.43,12.67,12.35,20.56h-49.75v19.3h85.24c-4.82,37.02-36.53,65.7-74.84,65.7-41.63,0-75.5-33.87-75.5-75.5S53.17,19.3,94.8,19.3c24.16,0,47.05,11.71,61.23,31.32l15.64-11.31C153.88,14.7,125.14,0,94.8,0,42.53,0,0,42.53,0,94.8s42.53,94.8,94.8,94.8,94.8-42.53,94.8-94.8h-.01l.11-9.5Z"/>
      <path class="cls-1" d="M225.28,27.01c0-8.59,6.37-14.79,14.63-14.79,3.79,0,7.3,1.29,10,3.99l-2.42,3.39c-2.22-1.89-4.92-3.02-7.7-3.02-5.48,0-9.64,4.39-9.64,10.44s4.23,10.4,9.68,10.4c3.55,0,6.33-1.85,8.22-3.63l2.38,3.51c-2.74,2.7-6.21,4.48-10.56,4.48-8.22,0-14.59-6.21-14.59-14.76"/>
      <path class="cls-1" d="M276.68,27.01c0-6.13-4.31-10.44-9.68-10.44s-9.67,4.31-9.67,10.44,4.39,10.4,9.67,10.4,9.68-4.31,9.68-10.4M252.41,27.01c0-8.59,6.53-14.79,14.55-14.79s14.59,6.21,14.59,14.79-6.53,14.76-14.59,14.76-14.55-6.21-14.55-14.76"/>
      <polygon class="cls-1" points="290.54 23.22 290.54 41.12 285.78 41.12 285.78 12.1 286.22 12.1 304.41 31 304.41 12.9 309.16 12.9 309.16 41.93 308.72 41.93 290.54 23.22"/>
      <polygon class="cls-1" points="314.44 12.9 332.82 12.9 332.82 17.1 319.28 17.1 319.28 25.48 330.6 25.48 330.6 29.67 319.28 29.67 319.28 41.12 314.44 41.12 314.44 12.9"/>
      <path class="cls-1" d="M337.09,12.9v28.22h18.79v-4.19h-13.95v-7.26h11.93v-4.19h-11.93v-8.38h13.55v-4.19h-18.38ZM348.5,7.8l-2.78,3.31h2.5l6.09-3.31h-5.81Z"/>
      <path class="cls-1" d="M368.85,27.7c4.27,0,6.37-2.38,6.37-5.44s-2.14-5.48-6.37-5.48h-3.67v10.93h3.67ZM360.35,12.9h8.79c6.89,0,10.97,4.15,10.97,9.35,0,3.71-2.02,6.81-5.64,8.34l6.81,10.52h-5.44l-6.09-9.55h-4.56v9.55h-4.84V12.9Z"/>
      <polygon class="cls-1" points="385.18 12.9 403.56 12.9 403.56 17.1 390.01 17.1 390.01 25.48 401.95 25.48 401.95 29.67 390.01 29.67 390.01 36.93 403.96 36.93 403.96 41.12 385.18 41.12 385.18 12.9"/>
      <polygon class="cls-1" points="413.19 23.22 413.19 41.12 408.43 41.12 408.43 12.1 408.88 12.1 427.06 31 427.06 12.9 431.81 12.9 431.81 41.93 431.37 41.93 413.19 23.22"/>
      <path class="cls-1" d="M436,27.01c0-8.59,6.37-14.79,14.63-14.79,3.79,0,7.3,1.29,10,3.99l-2.42,3.39c-2.22-1.89-4.92-3.02-7.7-3.02-5.48,0-9.64,4.39-9.64,10.44s4.23,10.4,9.68,10.4c3.55,0,6.33-1.85,8.22-3.63l2.38,3.51c-2.74,2.7-6.21,4.48-10.56,4.48-8.22,0-14.59-6.21-14.59-14.76"/>
      <polygon class="cls-1" points="465.02 12.9 483.41 12.9 483.41 17.1 469.86 17.1 469.86 25.48 481.79 25.48 481.79 29.67 469.86 29.67 469.86 36.93 483.81 36.93 483.81 41.12 465.02 41.12 465.02 12.9"/>
      <path class="cls-1" d="M511.7,36.47c7.33,0,10.65-4.3,10.65-9.7s-3.31-9.7-10.65-9.7h-2.88v19.4h2.88ZM504.09,12.97h7.73c9.98,0,15.3,6.07,15.3,13.8s-5.32,13.8-15.3,13.8h-7.73V12.97Z"/>
      <polygon class="cls-1" points="531.25 12.97 549.23 12.97 549.23 17.07 535.98 17.07 535.98 25.27 547.66 25.27 547.66 29.37 535.98 29.37 535.98 36.47 549.63 36.47 549.63 40.57 531.25 40.57 531.25 12.97"/>
      <path class="cls-1" d="M552.22,35.52l3.11-2.52c1.93,2.84,4.42,4.3,7.69,4.3,3.55,0,5.64-1.65,5.64-3.98,0-2.64-2.84-3.83-5.8-4.97-3.82-1.54-8.48-3.15-8.48-8.52,0-4.61,3.47-7.49,8.87-7.49,3.9,0,7.18,1.5,9.03,4.18l-3,2.44c-1.5-1.93-3.63-2.76-5.95-2.76-2.92,0-4.46,1.3-4.46,3.27,0,2.37,2.33,3.35,5.8,4.73,4.06,1.58,8.71,3.35,8.71,8.64s-4.3,8.28-10.25,8.28c-4.69,0-8.44-1.93-10.92-5.6"/>
      <path class="cls-1" d="M222.61,82.73c0-15.55,12.19-26.86,28.25-26.86,6.94,0,13.65,2.12,18.69,6.86l-7.08,9.93c-3.5-2.7-7.67-4.31-11.83-4.31-8.4,0-13.94,6.35-13.94,14.45s5.99,14.89,14.02,14.89c3.21,0,6.57-.95,9.78-2.99v-6.2h-11.97v-9.27h24.38v19.64c-5.84,7.23-13.87,10.8-22.56,10.8-15.4,0-27.74-11.24-27.74-26.94"/>
      <path class="cls-1" d="M298.46,82.95c7.45,0,9.27-4.38,9.27-7.52s-1.9-7.45-9.27-7.45h-3.65v14.97h3.65ZM280.94,57.32h19.05c13.43,0,21.9,7.81,21.9,18.18,0,6.64-3.43,12.12-9.34,15.26l10.95,17.67h-15.4l-8.54-14.82h-4.75v14.82h-13.87v-51.1Z"/>
      <path class="cls-1" d="M358.04,92.29l-5.33-13.07-5.4,13.07h10.73ZM352.12,55.86h1.17l25.84,52.56h-14.46l-2.41-5.91h-19.2l-2.41,5.91h-14.38l25.84-52.56Z"/>
      <polygon class="cls-1" points="397.31 84.11 397.31 108.42 383.73 108.42 383.73 55.86 384.83 55.86 416.51 82.43 416.51 57.32 430.09 57.32 430.09 109.88 429 109.88 397.31 84.11"/>
      <path class="cls-1" d="M455.35,96.74c9.71,0,15.4-5.99,15.4-13.94s-5.69-13.87-15.4-13.87h-3.36v27.81h3.36ZM438.12,57.32h17.89c17.52,0,28.83,10.95,28.83,25.55s-11.31,25.55-28.83,25.55h-17.89v-51.1Z"/>
      <polygon class="cls-1" points="490.91 57.32 526.31 57.32 526.31 69 504.78 69 504.78 78.56 523.39 78.56 523.39 89.22 504.78 89.22 504.78 96.74 527.04 96.74 527.04 108.42 490.91 108.42 490.91 57.32"/>
      <path class="cls-1" d="M532.08,98.27l8.61-7.23c4.31,5.77,8.83,7.81,13.5,7.81s7.52-2.26,7.52-4.82c0-3.07-4.02-4.53-8.03-5.77-6.86-2.19-17.08-4.67-17.08-16.65,0-10.15,7.37-15.77,18.62-15.77,8.69,0,15.48,3.36,19.64,8.69l-7.67,7.37c-3.29-3.36-7.15-5.26-11.75-5.26-3.87,0-6.2,1.31-6.2,4.02,0,2.48,1.97,3.43,8.91,5.77,7.74,2.56,17.3,5.55,17.3,16.35s-8.83,16.86-20.81,16.86c-8.62,0-16.65-3.36-22.56-11.39"/>
      <path class="cls-1" d="M242.17,115.55h14.6l-12.56,8.33h-7.3l5.26-8.33ZM225.8,125.7h35.41v11.68h-21.54v9.56h18.62v10.66h-18.62v7.52h22.27v11.68h-36.14v-51.1Z"/>
      <path class="cls-1" d="M266.97,151.18c0-15.62,12.19-26.94,28.25-26.94,6.94,0,13.65,2.12,18.69,6.86l-7.08,9.93c-3.5-2.7-7.67-4.31-11.83-4.31-8.4,0-13.94,6.35-13.94,14.45s6.06,14.38,13.87,14.38c4.75,0,9.64-2.26,13.14-5.18l6.79,9.93c-5.33,5.11-12.34,7.74-19.86,7.74-15.84,0-28.03-11.24-28.03-26.87"/>
      <path class="cls-1" d="M358.23,151.18c0-8.54-6.06-14.45-13.65-14.45s-13.72,5.91-13.72,14.45,6.2,14.38,13.72,14.38,13.65-5.91,13.65-14.38M316.76,151.18c0-15.62,12.48-26.94,27.81-26.94s27.81,11.32,27.81,26.94-12.41,26.87-27.81,26.87-27.81-11.24-27.81-26.87"/>
      <polygon class="cls-1" points="378.45 125.7 392.32 125.7 392.32 165.12 416.05 165.12 416.05 176.8 378.45 176.8 378.45 125.7"/>
      <polygon class="cls-1" points="422.62 125.7 458.03 125.7 458.03 137.38 436.49 137.38 436.49 146.94 455.11 146.94 455.11 157.6 436.49 157.6 436.49 165.12 458.76 165.12 458.76 176.8 422.62 176.8 422.62 125.7"/>
      <path class="cls-1" d="M463.8,166.65l8.61-7.23c4.31,5.77,8.83,7.81,13.51,7.81s7.52-2.26,7.52-4.82c0-3.07-4.02-4.53-8.03-5.77-6.86-2.19-17.08-4.67-17.08-16.65,0-10.15,7.37-15.77,18.62-15.77,8.69,0,15.48,3.36,19.64,8.69l-7.67,7.37c-3.29-3.36-7.15-5.26-11.75-5.26-3.87,0-6.2,1.31-6.2,4.02,0,2.48,1.97,3.43,8.91,5.77,7.74,2.56,17.3,5.55,17.3,16.35s-8.83,16.86-20.81,16.86c-8.61,0-16.64-3.36-22.56-11.39"/>
    </g>
  </g>
</svg>