<?xml version="1.0" encoding="UTF-8"?>
<svg id="Calque_2" data-name="Calque 2" xmlns="http://www.w3.org/2000/svg" viewBox="0 0 282.93 201.58">
  <defs>
    <style>
      .cls-1 {
        fill: #fff;
      }
    </style>
  </defs>
  <g id="Calque_2-2" data-name="Calque 2">
    <path class="cls-1" d="M103.86,0l9.44.99c16.9,2.56,33.01,9.46,46.4,20.01,1.79,1.41,5.95,4.6,7.22,6.2,1.44,1.81.33,2.82-.96,4.09-4.3,4.22-11.13,9.8-15.95,13.53-1.25.97-2.43,2.29-4.07,1.2-1.38-.91-3.66-3.64-5.15-4.92-30.97-26.51-74.55-19.26-97.54,13.47-22.99,32.73-17.45,83.82,16.04,108.77,27.28,20.32,63.82,16.3,86.89-8.25,1.17-1.24,3.04-4.05,4.18-4.93,1.77-1.37,2.9-.03,4.3,1,6.14,4.46,11.83,9.65,17.9,14.23,1.59,1.86-.78,3.78-2.04,5.17-9.31,10.27-23.46,19.35-36.39,24.26C73.13,218.03,8.95,176.83.8,113.47l-.75-7.76c.12-3.34-.16-6.73,0-10.07C2.45,45.1,43.31,2.43,94.27,0h9.59Z"/>
    <path class="cls-1" d="M210.55,88.45h30.57c.63,0,1.25,1.17,1.32,1.79.72,6.22-.56,13.79,0,20.15.11.69-1.31,1.79-1.81,1.79h-30.09v48.31c.94,11.61,7.47,18.24,19.47,14.42,3.54-1.13,6.69-3.19,9.92-4.96,1.73-.08,2.55.84,2.74,2.51-.4,6.12.54,12.91,0,18.95-.31,3.49-3.44,4.6-6.32,5.91-12.93,5.84-27.23,6.21-39.08-2.24s-14.37-22.49-14.8-36.74v-46.16h-19.53c-1.25,0-1.94-1.41-2.05-2.5-.58-6.06.46-13.04,0-19.19-.17-.63,1.12-2.03,1.56-2.03h20.02v-50.22c0-1.25,1.41-1.94,2.51-2.05,7.34-.71,15.81.56,23.27,0,.81-.11,2.27,1.12,2.27,1.8v50.46h.03Z"/>
    <path class="cls-1" d="M255.46,199.13c-.28-.25-.45-.82-.63-1.17l-.06-85.79c.35-1.17.91-1.77,2.17-1.91l23.93.06c.89.26,1.46.73,1.74,1.62l.06,85.89c-.31,1.13-1.06,1.72-2.22,1.86-7.49-.53-15.89.68-23.27,0-.55-.05-1.31-.19-1.71-.57h0Z"/>
    <path class="cls-1" d="M256.52,62.38l24.93.13c.98.51,1.17,1.29,1.27,2.33.68,7.22-.53,15.46,0,22.79-.07,1.56-.72,2.38-2.28,2.52-7.46.69-15.95-.55-23.52,0-1.45.04-2.29-1.14-2.28-2.52.61-7.23-.78-15.71,0-22.78.13-1.16.57-2.3,1.86-2.46h.02Z"/>
  </g>
</svg>