<svg width="171" height="55" viewBox="0 0 171 55" fill="none" xmlns="http://www.w3.org/2000/svg">
<path d="M0 0V55H171V0H0ZM168.069 1.69413L149.757 19.7663L131.446 1.69413H168.069ZM1.71657 1.69413H129.021L148.547 20.9649L115.774 53.3059H1.71657V1.69413ZM169.283 53.3059H118.203L169.283 2.89273V53.3059Z" fill="white"/>
<path d="M22.4313 9.37265V11.0837H13.8099V15.9374H21.8477V17.6485H13.8099V22.9299H22.4957V24.641H11.75V9.37265H22.427H22.4313ZM17.449 4.81543L15.3677 8.27993H16.7538L19.8093 4.81543H17.449Z" fill="white"/>
<path d="M30.7274 15.5057C30.264 15.1203 29.646 14.9297 28.865 14.9297C28.1998 14.9297 27.6462 15.0526 27.1956 15.294C26.7493 15.5354 26.3888 15.8573 26.1227 16.2554C25.8567 16.6535 25.6636 17.1152 25.5477 17.6361C25.4318 18.1571 25.376 18.6949 25.376 19.2498C25.376 19.7622 25.4361 20.262 25.5606 20.7448C25.685 21.2277 25.8738 21.6597 26.1356 22.0366C26.3974 22.4136 26.7364 22.7185 27.1527 22.9472C27.5732 23.1759 28.071 23.2903 28.6461 23.2903C29.5559 23.2903 30.2682 23.0531 30.7789 22.583C31.2896 22.1129 31.6072 21.4521 31.723 20.5966H33.607C33.4053 21.9646 32.8903 23.0192 32.0578 23.7604C31.2252 24.5016 30.0966 24.8701 28.6676 24.8701C27.8136 24.8701 27.0626 24.7345 26.406 24.4635C25.7494 24.1924 25.2001 23.807 24.7581 23.3072C24.3161 22.8075 23.9856 22.2145 23.7625 21.5241C23.5393 20.8338 23.4277 20.0757 23.4277 19.2455C23.4277 18.4154 23.535 17.6446 23.7539 16.9246C23.9685 16.2046 24.2989 15.5777 24.7409 15.0441C25.1829 14.5104 25.7322 14.0911 26.3974 13.782C27.0626 13.477 27.835 13.3203 28.7148 13.3203C29.3499 13.3203 29.9464 13.3965 30.5 13.5448C31.0536 13.693 31.5471 13.926 31.9719 14.2394C32.3968 14.5528 32.7487 14.9467 33.0233 15.4253C33.298 15.9039 33.4696 16.4714 33.5426 17.1236H31.6372C31.4913 16.4248 31.1909 15.8827 30.7274 15.4973V15.5057Z" fill="white"/>
<path d="M35.1894 16.8434C35.4211 16.1361 35.7687 15.5263 36.2279 15.0053C36.6914 14.4844 37.2622 14.0735 37.9402 13.7771C38.6182 13.4764 39.3993 13.3281 40.279 13.3281C41.1588 13.3281 41.957 13.4764 42.6307 13.7771C43.3002 14.0778 43.8666 14.4844 44.3301 15.0053C44.7936 15.5263 45.1369 16.1361 45.3686 16.8434C45.6004 17.5507 45.7162 18.3089 45.7162 19.1178C45.7162 19.9268 45.6004 20.6849 45.3686 21.3837C45.1369 22.0826 44.7893 22.6924 44.3301 23.2134C43.8666 23.7343 43.3002 24.1409 42.6307 24.4332C41.9613 24.7254 41.1759 24.8736 40.279 24.8736C39.3821 24.8736 38.6182 24.7254 37.9402 24.4332C37.2622 24.1409 36.6914 23.7343 36.2279 23.2134C35.7644 22.6924 35.4211 22.0826 35.1894 21.3837C34.9577 20.6849 34.8418 19.931 34.8418 19.1178C34.8418 18.3046 34.9577 17.5465 35.1894 16.8434ZM37.0605 20.9051C37.2407 21.4261 37.4896 21.8581 37.8072 22.2096C38.1247 22.5611 38.4981 22.828 38.9229 23.0101C39.3478 23.1964 39.7984 23.2896 40.2747 23.2896C40.7511 23.2896 41.2017 23.1964 41.6265 23.0101C42.0514 22.8237 42.4247 22.5569 42.7423 22.2096C43.0599 21.8623 43.3088 21.4261 43.489 20.9051C43.6692 20.3842 43.7594 19.7912 43.7594 19.1178C43.7594 18.4444 43.6692 17.8557 43.489 17.3347C43.3088 16.8138 43.0599 16.3776 42.7423 16.0218C42.4247 15.666 42.0514 15.395 41.6265 15.2086C41.2017 15.0223 40.7511 14.9291 40.2747 14.9291C39.7984 14.9291 39.3478 15.0223 38.9229 15.2086C38.4981 15.395 38.1247 15.666 37.8072 16.0218C37.4896 16.3776 37.2407 16.818 37.0605 17.3347C36.8802 17.8557 36.7901 18.4486 36.7901 19.1178C36.7901 19.787 36.8802 20.3842 37.0605 20.9051Z" fill="white"/>
<path d="M49.2863 9.37305V24.6372H47.4453V9.37305H49.2863Z" fill="white"/>
<path d="M59.5356 23.9295C58.6988 24.5563 57.6431 24.8697 56.3729 24.8697C55.4759 24.8697 54.6992 24.7257 54.0426 24.442C53.386 24.1582 52.8324 23.7558 52.3861 23.2434C51.9398 22.7309 51.6008 22.1168 51.3776 21.4052C51.1545 20.6937 51.0257 19.9144 51 19.0758C51 18.233 51.1287 17.4664 51.3905 16.7675C51.6523 16.0687 52.0171 15.4631 52.4848 14.9506C52.9526 14.4381 53.5105 14.04 54.1542 13.752C54.7979 13.4682 55.5017 13.3242 56.2656 13.3242C57.2612 13.3242 58.0894 13.5275 58.746 13.9341C59.4026 14.3407 59.9304 14.8574 60.3252 15.4842C60.7244 16.1111 60.9947 16.7972 61.1492 17.5384C61.2994 18.2796 61.3638 18.9826 61.3337 19.656H52.9526C52.9397 20.1389 52.9955 20.6005 53.1243 21.0368C53.253 21.473 53.4633 21.8584 53.7508 22.193C54.0383 22.5276 54.4074 22.7944 54.8537 22.9935C55.3 23.1925 55.8278 23.2942 56.4329 23.2942C57.214 23.2942 57.8534 23.1163 58.3512 22.7605C58.849 22.4048 59.1794 21.8626 59.3382 21.1342H61.1578C60.9132 22.3751 60.3725 23.3069 59.5313 23.9337L59.5356 23.9295ZM59.0893 16.8311C58.922 16.4457 58.6988 16.1153 58.4199 15.8358C58.1366 15.5562 57.8062 15.336 57.4242 15.1751C57.0423 15.0099 56.6175 14.9294 56.1583 14.9294C55.6991 14.9294 55.2528 15.0099 54.8709 15.1751C54.4889 15.3402 54.1585 15.5647 53.8838 15.8485C53.6092 16.1322 53.3946 16.4668 53.2358 16.8438C53.077 17.2207 52.9826 17.6231 52.9526 18.0508H59.3854C59.3554 17.6231 59.261 17.2165 59.0936 16.8311H59.0893Z" fill="white"/>
<path d="M78.7472 24.5905C78.4296 24.7769 77.9876 24.8701 77.4254 24.8701C76.9491 24.8701 76.5714 24.7388 76.2882 24.4762C76.0049 24.2136 75.8676 23.7816 75.8676 23.1844C75.3612 23.7816 74.7733 24.2136 74.1038 24.4762C73.4344 24.7388 72.7048 24.8701 71.9281 24.8701C71.4217 24.8701 70.9411 24.815 70.4862 24.7006C70.0313 24.5863 69.6365 24.4084 69.306 24.167C68.9756 23.9256 68.7095 23.6079 68.5164 23.214C68.3233 22.8244 68.2246 22.35 68.2246 21.791C68.2246 21.1641 68.3319 20.6517 68.5508 20.2535C68.7653 19.8554 69.0529 19.5293 69.4047 19.2794C69.7566 19.0295 70.1643 18.8389 70.6192 18.7119C71.0741 18.5848 71.5376 18.4789 72.0182 18.39C72.5246 18.2884 73.0052 18.2164 73.4601 18.1655C73.915 18.1147 74.3141 18.0427 74.6617 17.9538C75.0093 17.8606 75.284 17.7251 75.4857 17.5472C75.6874 17.3693 75.7904 17.1109 75.7904 16.7679C75.7904 16.3698 75.7131 16.0479 75.5629 15.8065C75.4127 15.565 75.2153 15.3787 74.9793 15.2516C74.739 15.1246 74.4729 15.0399 74.1768 14.9933C73.8807 14.9509 73.5889 14.9297 73.3014 14.9297C72.5203 14.9297 71.8723 15.078 71.3531 15.366C70.8338 15.6582 70.5506 16.2088 70.5076 17.022H68.6666C68.6967 16.3359 68.8383 15.7599 69.1001 15.2897C69.3618 14.8196 69.7052 14.4384 70.1386 14.1462C70.572 13.854 71.0655 13.6422 71.6234 13.5151C72.177 13.3881 72.7735 13.3203 73.4086 13.3203C73.915 13.3203 74.4171 13.3542 74.9149 13.4262C75.4127 13.4982 75.8633 13.6422 76.2667 13.8624C76.6701 14.0827 76.9963 14.3918 77.2409 14.79C77.4855 15.1881 77.6099 15.709 77.6099 16.3486V22.0239C77.6099 22.4517 77.6357 22.7651 77.6872 22.9642C77.7387 23.1632 77.906 23.2649 78.1979 23.2649C78.3566 23.2649 78.5455 23.2352 78.76 23.1802V24.5905H78.7472ZM75.756 18.9279C75.5243 19.0973 75.2196 19.2244 74.8463 19.3006C74.4686 19.3768 74.0781 19.4446 73.6661 19.4912C73.2542 19.542 72.8379 19.5971 72.4216 19.6606C72.0011 19.7241 71.6277 19.8258 71.2973 19.9698C70.9668 20.1095 70.6922 20.3128 70.4862 20.5754C70.2759 20.838 70.1729 21.198 70.1729 21.6512C70.1729 21.9477 70.233 22.2018 70.3574 22.4051C70.4819 22.6126 70.6407 22.7778 70.8338 22.9049C71.0269 23.0319 71.2543 23.1251 71.5161 23.1802C71.7779 23.2352 72.0483 23.2649 72.3401 23.2649C72.9452 23.2649 73.4644 23.1844 73.8979 23.0192C74.3313 22.854 74.6832 22.6507 74.9578 22.4009C75.2325 22.151 75.4342 21.8841 75.5629 21.5919C75.6917 21.2997 75.756 21.0286 75.756 20.7745V18.9237V18.9279Z" fill="white"/>
<path d="M79.332 15.1837V13.5828H81.216V11.9352C81.216 11.0374 81.4777 10.3555 82.0056 9.89381C82.5334 9.43216 83.3016 9.19922 84.3144 9.19922C84.486 9.19922 84.6877 9.21192 84.9109 9.24157C85.134 9.27122 85.3314 9.31357 85.5074 9.36863V10.9526C85.3486 10.8976 85.1769 10.8552 84.9881 10.8341C84.7993 10.8129 84.6276 10.8002 84.4689 10.8002C84.0225 10.8002 83.6749 10.8849 83.4303 11.0585C83.1857 11.2279 83.0613 11.5583 83.0613 12.0411V13.5828H85.2284V15.1837H83.0613V24.6328H81.2203V15.1837H79.3363H79.332Z" fill="white"/>
<path d="M85.7422 15.1837V13.5828H87.6261V11.9352C87.6261 11.0374 87.8879 10.3555 88.4157 9.89381C88.9436 9.43216 89.7117 9.19922 90.7202 9.19922C90.8919 9.19922 91.0936 9.21192 91.3167 9.24157C91.5399 9.27122 91.7373 9.31357 91.9132 9.36863V10.9526C91.7545 10.8976 91.5785 10.8552 91.394 10.8341C91.2052 10.8129 91.0335 10.8002 90.8747 10.8002C90.4284 10.8002 90.0808 10.8849 89.8362 11.0585C89.5916 11.2279 89.4671 11.5583 89.4671 12.0411V13.5828H91.6343V15.1837H89.4671V24.6328H87.6261V15.1837H85.7422ZM93.3895 9.37287H95.2305V11.5964H93.3895V9.37287ZM93.3895 13.5828H95.2305V24.6328H93.3895V13.5828Z" fill="white"/>
<path d="M100.036 9.37305V24.6372H98.1953V9.37305H100.036Z" fill="white"/>
<path d="M103.008 11.5966V9.37305H104.849V11.5966H103.008ZM104.849 13.583V24.6329H103.008V13.583H104.849Z" fill="white"/>
<path d="M115.631 23.9293C114.795 24.5561 113.739 24.8695 112.469 24.8695C111.572 24.8695 110.795 24.7255 110.138 24.4417C109.482 24.158 108.928 23.7556 108.482 23.2431C108.036 22.7307 107.697 22.1165 107.473 21.405C107.25 20.6935 107.121 19.9142 107.096 19.0756C107.096 18.2327 107.224 17.4661 107.486 16.7673C107.748 16.0685 108.113 15.4628 108.581 14.9504C109.048 14.4379 109.606 14.0398 110.25 13.7518C110.894 13.468 111.597 13.324 112.361 13.324C113.357 13.324 114.185 13.5273 114.842 13.9339C115.498 14.3405 116.026 14.8572 116.425 15.484C116.82 16.1108 117.095 16.797 117.249 17.5381C117.399 18.2793 117.464 18.9824 117.434 19.6558H109.053C109.04 20.1386 109.096 20.6003 109.224 21.0365C109.353 21.4728 109.563 21.8582 109.851 22.1928C110.138 22.5274 110.507 22.7942 110.954 22.9932C111.4 23.1923 111.928 23.294 112.533 23.294C113.314 23.294 113.953 23.1161 114.451 22.7603C114.949 22.4045 115.279 21.8624 115.438 21.1339H117.258C117.013 22.3749 116.472 23.3067 115.631 23.9335V23.9293ZM115.189 16.8308C115.022 16.4454 114.799 16.1151 114.52 15.8355C114.237 15.556 113.906 15.3358 113.524 15.1748C113.142 15.0097 112.717 14.9292 112.258 14.9292C111.799 14.9292 111.353 15.0097 110.971 15.1748C110.589 15.34 110.258 15.5645 109.984 15.8482C109.709 16.132 109.495 16.4666 109.336 16.8435C109.177 17.2205 109.083 17.6228 109.053 18.0506H115.485C115.455 17.6228 115.361 17.2163 115.194 16.8308H115.189ZM112.902 8.17383L110.821 11.6383H112.207L115.262 8.17383H112.902Z" fill="white"/>
<path d="M127.266 23.9295C126.429 24.5563 125.374 24.8697 124.103 24.8697C123.206 24.8697 122.43 24.7257 121.773 24.442C121.116 24.1582 120.563 23.7558 120.117 23.2434C119.67 22.7309 119.331 22.1168 119.108 21.4052C118.885 20.6937 118.756 19.9144 118.73 19.0758C118.73 18.233 118.859 17.4664 119.121 16.7675C119.383 16.0687 119.748 15.4631 120.215 14.9506C120.683 14.4381 121.241 14.04 121.885 13.752C122.528 13.4682 123.232 13.3242 123.996 13.3242C124.992 13.3242 125.82 13.5275 126.476 13.9341C127.133 14.3407 127.661 14.8574 128.06 15.4842C128.455 16.1111 128.729 16.7972 128.884 17.5384C129.034 18.2796 129.099 18.9826 129.068 19.656H120.687C120.674 20.1389 120.73 20.6005 120.859 21.0368C120.988 21.473 121.198 21.8584 121.486 22.193C121.773 22.5276 122.142 22.7944 122.588 22.9935C123.035 23.1925 123.563 23.2942 124.168 23.2942C124.949 23.2942 125.588 23.1163 126.086 22.7605C126.584 22.4048 126.914 21.8626 127.073 21.1342H128.893C128.648 22.3751 128.107 23.3069 127.266 23.9337V23.9295ZM126.82 16.8311C126.652 16.4457 126.429 16.1153 126.15 15.8358C125.867 15.5562 125.537 15.336 125.155 15.1751C124.773 15.0099 124.348 14.9294 123.889 14.9294C123.43 14.9294 122.983 15.0099 122.601 15.1751C122.219 15.3402 121.889 15.5647 121.614 15.8485C121.34 16.1322 121.125 16.4668 120.966 16.8438C120.808 17.2207 120.713 17.6231 120.683 18.0508H127.116C127.086 17.6231 126.991 17.2165 126.824 16.8311H126.82Z" fill="white"/>
<path d="M15.1527 30.3672V45.6313H11.7539V30.3672H15.1527Z" fill="white"/>
<path d="M22.783 30.3672L26.4006 40.8623H26.4436L29.8681 30.3672H34.653V45.6313H31.4688V34.8143H31.4259L27.6366 45.6313H25.0145L21.2252 34.9202H21.1823V45.6313H17.998V30.3672H22.783Z" fill="white"/>
<path d="M36.1504 33.1879V30.3672H48.8229V33.1879H44.1882V45.6313H40.7894V33.1879H36.1547H36.1504Z" fill="white"/>
</svg>
