<svg width="161" height="51" viewBox="0 0 161 51" fill="none" xmlns="http://www.w3.org/2000/svg">
<g clip-path="url(#clip0_294_4804)">
<path d="M161 0H0V51H161V0Z" fill="#D9E1E2"/>
<path d="M161 0H122.23L141.613 19.2476L161 0Z" fill="#0C2340"/>
<path d="M161 51H109.631L161 0V51Z" fill="#00B8DE"/>
<path d="M20.5171 8.1569V9.79395H12.3175V14.4377H19.962V16.0747H12.3175V21.1277H20.5783V22.7648H10.3584V8.1569H20.513H20.5171ZM15.7785 3.79681L13.799 7.11145H15.1173L18.0233 3.79681H15.7785Z" fill="#0C2340"/>
<path d="M28.4064 14.0244C27.9656 13.6557 27.3779 13.4733 26.635 13.4733C26.0024 13.4733 25.4759 13.5908 25.0474 13.8218C24.6229 14.0528 24.2801 14.3607 24.027 14.7416C23.774 15.1225 23.5903 15.5642 23.4801 16.0586C23.3699 16.557 23.3168 17.0716 23.3168 17.6024C23.3168 18.0927 23.374 18.5709 23.4923 19.0328C23.6107 19.4948 23.7903 19.9081 24.0392 20.2687C24.2882 20.6294 24.6106 20.9211 25.0065 21.1359C25.4065 21.3547 25.88 21.4641 26.4269 21.4641C27.2921 21.4641 27.9697 21.2372 28.4553 20.7874C28.941 20.3376 29.2431 19.7055 29.3533 18.887H31.145C30.9532 20.1958 30.4634 21.2048 29.6716 21.9139C28.8798 22.623 27.8064 22.9756 26.4473 22.9756C25.6351 22.9756 24.9208 22.8459 24.2964 22.5865C23.6719 22.3272 23.1495 21.9585 22.7291 21.4844C22.3087 21.0062 21.9945 20.4389 21.7822 19.7744C21.57 19.1139 21.4639 18.3885 21.4639 17.5943C21.4639 16.8001 21.5659 16.0626 21.7741 15.3738C21.9781 14.6849 22.2924 14.0852 22.7128 13.5746C23.1332 13.0641 23.6556 12.6629 24.2882 12.3671C24.9208 12.0753 25.6555 11.9254 26.4922 11.9254C27.0962 11.9254 27.6636 11.9984 28.1901 12.1402C28.7166 12.282 29.1859 12.5049 29.59 12.8047C29.994 13.1046 30.3287 13.4814 30.5899 13.9393C30.8511 14.3972 31.0144 14.9402 31.0838 15.5642H29.2716C29.1329 14.8956 28.8472 14.3769 28.4064 14.0082" fill="#0C2340"/>
<path d="M32.6509 15.3049C32.8713 14.6282 33.2019 14.0447 33.6386 13.5463C34.0794 13.0479 34.6182 12.6548 35.2671 12.3712C35.912 12.0835 36.6548 11.9417 37.4915 11.9417C38.3282 11.9417 39.0873 12.0835 39.7281 12.3712C40.3648 12.6589 40.9036 13.0479 41.3443 13.5463C41.7851 14.0447 42.1117 14.6282 42.332 15.3049C42.5524 15.9816 42.6626 16.7069 42.6626 17.4809C42.6626 18.2549 42.5524 18.9802 42.332 19.6488C42.1117 20.3174 41.7811 20.9009 41.3443 21.3952C40.9036 21.8937 40.3648 22.2827 39.7281 22.5623C39.0914 22.8419 38.3445 22.9837 37.4915 22.9837C36.6385 22.9837 35.912 22.8419 35.2671 22.5623C34.6222 22.2827 34.0794 21.8937 33.6386 21.3952C33.1978 20.8968 32.8672 20.3133 32.6509 19.6488C32.4305 18.9802 32.3203 18.2589 32.3203 17.4809C32.3203 16.7029 32.4305 15.9776 32.6509 15.3049ZM34.4304 19.1909C34.6018 19.6893 34.8386 20.1067 35.1406 20.4389C35.4426 20.7753 35.7977 21.0306 36.2017 21.2048C36.6058 21.3831 37.0344 21.4722 37.4915 21.4722C37.9486 21.4722 38.3731 21.3831 38.7771 21.2048C39.1812 21.0265 39.5363 20.7712 39.8383 20.4389C40.1403 20.1067 40.377 19.6893 40.5485 19.1909C40.7199 18.6925 40.8056 18.1252 40.8056 17.485C40.8056 16.8447 40.7199 16.2774 40.5485 15.779C40.377 15.2806 40.1403 14.8632 39.8383 14.5229C39.5363 14.1825 39.1812 13.9231 38.7771 13.7448C38.3731 13.5666 37.9445 13.4774 37.4915 13.4774C37.0384 13.4774 36.6099 13.5666 36.2017 13.7448C35.7977 13.9231 35.4426 14.1825 35.1406 14.5229C34.8386 14.8632 34.6018 15.2847 34.4304 15.779C34.259 16.2774 34.1733 16.8447 34.1733 17.485C34.1733 18.1252 34.259 18.6965 34.4304 19.1909Z" fill="#0C2340"/>
<path d="M46.0585 8.15289H44.3076V22.7567H46.0585V8.15289Z" fill="#0C2340"/>
<path d="M55.8045 22.0841C55.0086 22.6838 54.0046 22.9836 52.7965 22.9836C51.9435 22.9836 51.2047 22.8459 50.5803 22.5744C49.9558 22.3029 49.4293 21.9179 49.0048 21.4276C48.5804 20.9373 48.2579 20.3498 48.0457 19.669C47.8335 18.9883 47.711 18.2427 47.6865 17.4403C47.6865 16.634 47.809 15.9005 48.0579 15.2319C48.3069 14.5633 48.6497 13.9839 49.0987 13.4936C49.5436 13.0033 50.0742 12.6224 50.6864 12.3468C51.2986 12.0753 51.9679 11.9376 52.6944 11.9376C53.6413 11.9376 54.429 12.1321 55.0535 12.5211C55.678 12.9101 56.18 13.4044 56.5595 14.0041C56.935 14.6039 57.1962 15.2603 57.3432 15.9694C57.486 16.6785 57.5472 17.3512 57.5187 17.9955H49.5477C49.5354 18.4574 49.5885 18.8991 49.7109 19.3165C49.8334 19.7338 50.0333 20.1026 50.3068 20.4227C50.5803 20.7428 50.9313 20.9981 51.3557 21.1886C51.7802 21.379 52.2822 21.4763 52.8577 21.4763C53.6005 21.4763 54.2086 21.3061 54.6821 20.9657C55.1555 20.6253 55.4657 20.1066 55.6208 19.4137H57.3513C57.1187 20.601 56.6044 21.4925 55.8086 22.0922M55.38 15.2927C55.2208 14.924 55.0086 14.6079 54.7433 14.3405C54.4739 14.073 54.1597 13.8623 53.7964 13.7083C53.4332 13.5503 53.0291 13.4733 52.5924 13.4733C52.1557 13.4733 51.7312 13.5503 51.368 13.7083C51.0047 13.8664 50.6905 14.0811 50.4292 14.3526C50.168 14.6241 49.9599 14.9442 49.8129 15.3049C49.6619 15.6655 49.5721 16.0505 49.5436 16.4597H55.6616C55.6331 16.0505 55.5392 15.6615 55.3841 15.2927" fill="#0C2340"/>
<path d="M74.077 22.7162C73.775 22.8945 73.3546 22.9837 72.8199 22.9837C72.3669 22.9837 72.0077 22.8581 71.7383 22.6068C71.473 22.3556 71.3384 21.9423 71.3384 21.3709C70.8567 21.9423 70.2976 22.3556 69.6609 22.6068C69.0242 22.8581 68.3303 22.9837 67.5916 22.9837C67.11 22.9837 66.6529 22.927 66.2202 22.8216C65.7876 22.7122 65.4121 22.542 65.0979 22.311C64.7836 22.0801 64.5305 21.7761 64.3469 21.3993C64.1632 21.0265 64.0693 20.5727 64.0693 20.0378C64.0693 19.4381 64.1714 18.9478 64.3795 18.5669C64.5877 18.186 64.8571 17.874 65.1917 17.6349C65.5264 17.3958 65.9141 17.2175 66.3468 17.0919C66.7794 16.9703 67.2202 16.865 67.6773 16.7839C68.1589 16.6907 68.616 16.6178 69.0487 16.5692C69.4813 16.5205 69.8609 16.4557 70.1915 16.3666C70.5221 16.2774 70.7833 16.1478 70.9751 15.9776C71.1669 15.8074 71.2649 15.5602 71.2649 15.232C71.2649 14.8511 71.1914 14.5431 71.0486 14.3121C70.9057 14.0812 70.718 13.9029 70.4935 13.7813C70.2649 13.6597 70.0119 13.5747 69.7303 13.5382C69.4487 13.4977 69.1711 13.4774 68.8977 13.4774C68.1548 13.4774 67.5386 13.6192 67.0447 13.8948C66.5508 14.1744 66.2815 14.7011 66.2407 15.4792H64.4897C64.5183 14.8227 64.653 14.2716 64.902 13.8218C65.1509 13.372 65.4774 13.0074 65.8897 12.7278C66.3019 12.4482 66.7712 12.2456 67.3018 12.124C67.8283 12.0024 68.3956 11.9417 68.9997 11.9417C69.4813 11.9417 69.9588 11.9741 70.4323 12.043C70.9057 12.1118 71.3343 12.2496 71.722 12.4603C72.1057 12.671 72.4159 12.9668 72.6485 13.3477C72.8811 13.7286 72.9995 14.227 72.9995 14.8389V20.2688C72.9995 20.678 73.024 20.9779 73.073 21.1683C73.1219 21.3588 73.2811 21.456 73.5587 21.456C73.7097 21.456 73.8892 21.4277 74.0933 21.375V22.7243L74.077 22.7162ZM71.2322 17.2986C71.0118 17.4606 70.7221 17.5822 70.367 17.6551C70.0078 17.7281 69.6364 17.7889 69.2446 17.8375C68.8528 17.8861 68.4569 17.9388 68.061 17.9996C67.661 18.0604 67.3059 18.1576 66.9916 18.2954C66.6774 18.4291 66.4202 18.6236 66.2202 18.8748C66.0203 19.1261 65.9223 19.4705 65.9223 19.9041C65.9223 20.1877 65.9794 20.4308 66.0978 20.6253C66.2121 20.8198 66.3631 20.9819 66.5508 21.1035C66.7345 21.2251 66.9508 21.3142 67.1998 21.3669C67.4488 21.4196 67.71 21.4479 67.9834 21.4479C68.5589 21.4479 69.0528 21.3709 69.465 21.2129C69.8772 21.0549 70.2119 20.8604 70.4731 20.6213C70.7343 20.3822 70.9261 20.1269 71.0486 19.8473C71.171 19.5677 71.2363 19.3084 71.2363 19.0653V17.2945L71.2322 17.2986Z" fill="#0C2340"/>
<path d="M74.6328 13.7164V12.1847H76.4246V10.6085C76.4246 9.7494 76.6735 9.09701 77.1755 8.65533C77.6776 8.21365 78.4081 7.99078 79.3673 7.99078C79.5305 7.99078 79.7224 8.00294 79.9346 8.03131C80.1468 8.05967 80.3346 8.10019 80.5019 8.15287V9.66836C80.3509 9.61568 80.1876 9.57516 80.008 9.5549C79.8285 9.53464 79.6652 9.52249 79.5142 9.52249C79.0897 9.52249 78.7591 9.60353 78.5265 9.76967C78.2938 9.93175 78.1755 10.2478 78.1755 10.7098V12.1847H80.2366V13.7164H78.1755V22.7567H76.4246V13.7164H74.6328Z" fill="#0C2340"/>
<path d="M80.7305 13.7205V12.1847H82.5222V10.6085C82.5222 9.7494 82.7712 9.09701 83.2732 8.65533C83.7752 8.21365 84.5058 7.99078 85.4649 7.99078C85.6282 7.99078 85.82 8.00294 86.0322 8.03131C86.2445 8.05967 86.4322 8.10019 86.5996 8.15287V9.66836C86.4485 9.61568 86.2812 9.57516 86.1057 9.5549C85.9261 9.53464 85.7629 9.52249 85.6119 9.52249C85.1874 9.52249 84.8568 9.60353 84.6241 9.76967C84.3915 9.93175 84.2731 10.2478 84.2731 10.7098V12.1847H86.3343V13.7205H84.2731V22.7608H82.5222V13.7205H80.7305ZM88.0036 8.15287H89.7545V10.2802H88.0036V8.15287ZM88.0036 12.1847H89.7545V22.7567H88.0036V12.1847Z" fill="#0C2340"/>
<path d="M94.3251 8.15289H92.5742V22.7567H94.3251V8.15289Z" fill="#0C2340"/>
<path d="M97.1494 8.15289H98.9003V10.2803H97.1494V8.15289ZM98.9003 22.7567H97.1494V12.1848H98.9003V22.7567Z" fill="#0C2340"/>
<path d="M109.157 22.0841C108.361 22.6838 107.357 22.9837 106.149 22.9837C105.296 22.9837 104.557 22.8459 103.933 22.5744C103.308 22.3029 102.782 21.922 102.357 21.4276C101.933 20.9373 101.61 20.3498 101.398 19.669C101.186 18.9883 101.064 18.2427 101.039 17.4404C101.039 16.638 101.162 15.9005 101.41 15.2319C101.659 14.5633 102.006 13.9839 102.451 13.4936C102.896 13.0033 103.427 12.6224 104.039 12.3468C104.651 12.0753 105.32 11.9376 106.047 11.9376C106.994 11.9376 107.782 12.1321 108.406 12.5211C109.03 12.9101 109.533 13.4044 109.912 14.0042C110.288 14.6039 110.549 15.2563 110.696 15.9654C110.839 16.6745 110.9 17.3472 110.871 17.9914H102.9C102.888 18.4534 102.941 18.8951 103.063 19.3124C103.186 19.7298 103.386 20.0985 103.659 20.4187C103.933 20.7388 104.284 20.9941 104.708 21.1845C105.133 21.375 105.635 21.4722 106.21 21.4722C106.953 21.4722 107.561 21.302 108.035 20.9616C108.508 20.6213 108.822 20.1026 108.973 19.4056H110.704C110.471 20.5929 109.957 21.4844 109.157 22.0841ZM108.737 15.2927C108.577 14.924 108.365 14.6079 108.1 14.3405C107.831 14.073 107.516 13.8623 107.153 13.7084C106.79 13.5503 106.386 13.4733 105.949 13.4733C105.512 13.4733 105.088 13.5503 104.725 13.7084C104.361 13.8664 104.047 14.0811 103.786 14.3526C103.525 14.6241 103.321 14.9442 103.17 15.3049C103.019 15.6655 102.929 16.0505 102.9 16.4597H109.018C108.99 16.0505 108.9 15.6615 108.741 15.2927M106.561 7.01019L104.582 10.3248H105.9L108.806 7.01019H106.561Z" fill="#0C2340"/>
<path d="M120.222 22.0841C119.427 22.6838 118.423 22.9836 117.214 22.9836C116.361 22.9836 115.623 22.8459 114.998 22.5744C114.374 22.3029 113.847 21.9179 113.423 21.4276C112.998 20.9373 112.676 20.3498 112.464 19.669C112.251 18.9883 112.129 18.2427 112.104 17.4403C112.104 16.634 112.227 15.9005 112.476 15.2319C112.725 14.5633 113.072 13.9839 113.517 13.4936C113.962 13.0033 114.492 12.6224 115.104 12.3468C115.717 12.0753 116.386 11.9376 117.112 11.9376C118.059 11.9376 118.847 12.1321 119.471 12.5211C120.096 12.9101 120.598 13.4044 120.978 14.0041C121.353 14.6039 121.614 15.2603 121.761 15.9694C121.904 16.6785 121.965 17.3512 121.937 17.9955H113.962C113.949 18.4574 114.002 18.8991 114.129 19.3165C114.251 19.7338 114.451 20.1026 114.725 20.4227C114.998 20.7428 115.349 20.9981 115.774 21.1886C116.198 21.379 116.7 21.4763 117.276 21.4763C118.018 21.4763 118.627 21.3061 119.1 20.9657C119.573 20.6253 119.888 20.1066 120.039 19.4137H121.769C121.537 20.601 121.022 21.4925 120.222 22.0922M119.798 15.2927C119.639 14.924 119.427 14.6079 119.161 14.3405C118.892 14.073 118.578 13.8623 118.214 13.7083C117.851 13.5503 117.447 13.4733 117.01 13.4733C116.574 13.4733 116.149 13.5503 115.786 13.7083C115.423 13.8664 115.108 14.0811 114.847 14.3526C114.586 14.6241 114.382 14.9442 114.231 15.3049C114.08 15.6655 113.99 16.0505 113.962 16.4597H120.08C120.051 16.0505 119.961 15.6615 119.802 15.2927" fill="#0C2340"/>
<path d="M13.5948 28.2433H10.3623V42.8471H13.5948V28.2433Z" fill="#00B8DE"/>
<path d="M20.8516 28.2433L24.2922 38.2844H24.333L27.59 28.2433H32.1408V42.8471H29.1124V32.498H29.0716L25.4677 42.8471H22.9739L19.37 32.5993H19.3292V42.8471H16.3008V28.2433H20.8516Z" fill="#00B8DE"/>
<path d="M33.5654 30.942V28.2433H45.6179V30.942H41.2099V42.8471H37.9775V30.942H33.5654Z" fill="#00B8DE"/>
</g>
<defs>
<clipPath id="clip0_294_4804">
<rect width="161" height="51" fill="white"/>
</clipPath>
</defs>
</svg>
