<?xml version="1.0" encoding="UTF-8"?>
<svg id="Calque_2" data-name="Calque 2" xmlns="http://www.w3.org/2000/svg" viewBox="0 0 383.59 56.69">
  <defs>
    <style>
      .cls-1 {
        fill: #fff;
      }
    </style>
  </defs>
  <g id="Calque_1-2" data-name="Calque 1">
    <g>
      <rect class="cls-1" x="35.81" y="31.71" width="3.78" height="22.68" transform="translate(-19.4 39.27) rotate(-45)"/>
      <rect class="cls-1" x="41.16" y="26.36" width="3.78" height="22.68" transform="translate(-14.05 41.48) rotate(-45)"/>
      <rect class="cls-1" x="11.76" y="7.65" width="3.78" height="22.68" transform="translate(-9.43 15.21) rotate(-45)"/>
      <rect class="cls-1" x="17.1" y="2.31" width="3.78" height="22.68" transform="translate(-4.09 17.43) rotate(-45)"/>
      <rect class="cls-1" x="26.36" y="11.76" width="22.68" height="3.78" transform="translate(1.39 30.66) rotate(-45)"/>
      <rect class="cls-1" x="31.71" y="17.1" width="22.68" height="3.78" transform="translate(-.82 36) rotate(-45)"/>
      <rect class="cls-1" x="2.31" y="35.81" width="22.68" height="3.78" transform="translate(-22.66 20.69) rotate(-45)"/>
      <rect class="cls-1" x="7.65" y="41.16" width="22.68" height="3.78" transform="translate(-24.87 26.04) rotate(-45)"/>
      <rect class="cls-1" x="22.68" width="3.78" height="11.34"/>
      <rect class="cls-1" x="30.24" width="3.78" height="11.34"/>
      <rect class="cls-1" x="22.68" y="45.35" width="3.78" height="11.34"/>
      <rect class="cls-1" x="30.24" y="45.35" width="3.78" height="11.34"/>
      <rect class="cls-1" x="45.35" y="22.68" width="11.34" height="3.78"/>
      <rect class="cls-1" x="45.35" y="30.24" width="11.34" height="3.78"/>
      <rect class="cls-1" y="22.68" width="11.34" height="3.78"/>
      <rect class="cls-1" y="30.24" width="11.34" height="3.78"/>
      <path class="cls-1" d="M186.93,21.93h-4.2v16.42h4.2v-16.42ZM113.47,21.93h-4.2v16.42h4.2v-16.42ZM85.86,29.65v-13.23h-4.33v13.23c0,2.95-1.71,4.76-4.6,4.76s-4.56-1.81-4.56-4.76v-13.23h-4.33v13.23c0,5.38,3.41,9.03,8.9,9.03s8.93-3.65,8.93-9.03M101.1,38.35h4.27v-9.29c0-4.27-2.56-7.45-7.49-7.45-1.31,0-2.56.3-3.58.95v-.62h-4.33v16.42h4.33v-10.87c.36-.62,1.35-1.87,3.41-1.87s3.38,1.51,3.38,3.45v9.29ZM109.21,18.81h4.33v-4.47h-4.33v4.47ZM127.2,38.35l6.17-16.42h-4.5l-4.04,10.74-4.3-10.74h-4.5l6.67,16.42h4.5ZM146.54,28.53h-7.39c.46-1.91,1.84-2.99,3.87-2.99,1.67,0,3.12,1.02,3.51,2.99M150.74,31.52c.1-.62.1-1.25.1-1.81,0-4.63-3.05-8.14-7.95-8.14s-8.18,3.87-8.18,8.5,3.09,8.64,8.18,8.64c3.64,0,5.71-1.38,7.55-3.68l-3.18-2.3c-1.12,1.38-2.33,2.1-4.11,2.1-2.1,0-3.61-1.25-4.07-3.32h11.66ZM158.49,27.45l5.06-1.97v-4.27l-5.06,1.94v-1.21h-4.4v16.42h4.4v-10.9ZM177.5,26.59l1.87-.75c-.85-2.82-3.32-4.27-6.99-4.27-4.3,0-6.53,2.46-6.53,5.12,0,2.96,2.04,4.37,5.81,5.25l.43.1c2.53.59,2.92.89,2.92,1.67,0,.92-.92,1.41-2.33,1.41-1.71,0-2.95-.95-3.58-2.2l-1.84.79-1.94.79c1.28,2.46,3.65,4.2,7.45,4.2,4.01,0,6.43-2.33,6.43-5.12s-1.61-4.33-5.91-5.29l-.29-.07c-2.43-.53-3.05-.89-3.05-1.77,0-.69.85-1.38,2.37-1.38,1.67,0,2.89.95,3.28,2.2l1.9-.69ZM171.39,26.46c0,.07-.03.07.07.07-.07,0-.07-.03-.07-.07M182.66,18.81h4.33v-4.47h-4.33v4.47ZM197.17,25.9h4.56v-3.97h-4.56v-4.99h-4.2v4.99h-3.28v3.97h3.28v12.44h4.2v-12.44ZM213.32,19.67l3.28-5.45h-4.66l-2.96,5.45h4.33ZM214.9,28.53h-7.39c.46-1.91,1.84-2.99,3.87-2.99,1.67,0,3.12,1.02,3.51,2.99M219.1,31.52c.1-.62.1-1.25.1-1.81,0-4.63-3.05-8.14-7.95-8.14s-8.18,3.87-8.18,8.5,3.09,8.64,8.18,8.64c3.64,0,5.71-1.38,7.55-3.68l-3.19-2.3c-1.12,1.38-2.33,2.1-4.1,2.1-2.1,0-3.61-1.25-4.07-3.32h11.66ZM242.76,33.39c-.85.79-1.84,1.31-3.38,1.31-2.4,0-4.5-1.64-4.5-4.56s2.07-4.57,4.56-4.57c1.15,0,2.33.43,3.32,1.05v6.76ZM242.76,38.35h4.4V14.21h-4.4v8.18c-1.25-.53-2.49-.82-3.81-.82-4.73,0-8.41,3.51-8.41,8.57s3.35,8.57,8.41,8.57c1.18,0,2.46-.23,3.81-1.05v.69ZM262.26,28.53h-7.39c.46-1.91,1.84-2.99,3.87-2.99,1.67,0,3.12,1.02,3.51,2.99M266.46,31.52c.1-.62.1-1.25.1-1.81,0-4.63-3.05-8.14-7.95-8.14s-8.17,3.87-8.17,8.5,3.09,8.64,8.17,8.64c3.65,0,5.71-1.38,7.55-3.68l-3.19-2.3c-1.12,1.38-2.33,2.1-4.1,2.1-2.1,0-3.61-1.25-4.07-3.32h11.66ZM287.78,23.34c-.03,1.94-1.38,2.86-3.48,2.86h-2.07v-5.68h2.07c2.07,0,3.45,1.12,3.48,2.82M292.54,38.35l-4.2-8.8c2.43-1.25,3.71-3.78,3.71-6.21v-.03c0-4.14-3.51-6.89-7.06-6.89h-7.09v21.93h4.33v-8.04h2l3.78,8.04h4.53ZM306.14,28.53h-7.39c.46-1.91,1.84-2.99,3.87-2.99,1.67,0,3.12,1.02,3.51,2.99M310.34,31.52c.1-.62.1-1.25.1-1.81,0-4.63-3.05-8.14-7.95-8.14s-8.18,3.87-8.18,8.5,3.09,8.64,8.18,8.64c3.65,0,5.71-1.38,7.55-3.68l-3.19-2.3c-1.12,1.38-2.33,2.1-4.1,2.1-2.1,0-3.61-1.25-4.07-3.32h11.66ZM324.75,38.35h4.27v-9.29c0-4.27-2.56-7.45-7.49-7.45-1.31,0-2.56.3-3.58.95v-.62h-4.33v16.42h4.33v-10.87c.36-.62,1.35-1.87,3.41-1.87s3.38,1.51,3.38,3.45v9.29ZM343.93,38.35h4.27v-9.29c0-4.27-2.56-7.45-7.49-7.45-1.31,0-2.56.3-3.58.95v-.62h-4.33v16.42h4.33v-10.87c.36-.62,1.35-1.87,3.41-1.87s3.38,1.51,3.38,3.45v9.29ZM363.04,28.53h-7.39c.46-1.91,1.84-2.99,3.87-2.99,1.67,0,3.12,1.02,3.51,2.99M367.24,31.52c.1-.62.1-1.25.1-1.81,0-4.63-3.05-8.14-7.95-8.14s-8.18,3.87-8.18,8.5,3.09,8.64,8.18,8.64c3.65,0,5.71-1.38,7.55-3.68l-3.19-2.3c-1.12,1.38-2.33,2.1-4.11,2.1-2.1,0-3.61-1.25-4.07-3.32h11.66ZM383.59,25.84c-.85-2.82-3.32-4.27-6.99-4.27-4.3,0-6.53,2.46-6.53,5.12,0,2.96,2.04,4.37,5.81,5.25l.43.1c2.53.59,2.92.89,2.92,1.67,0,.92-.92,1.41-2.33,1.41-1.71,0-2.95-.95-3.58-2.2l-1.84.79-1.94.79c1.28,2.46,3.65,4.2,7.45,4.2,4.01,0,6.44-2.33,6.44-5.12s-1.61-4.33-5.91-5.29l-.29-.07c-2.43-.53-3.05-.89-3.05-1.77,0-.69.85-1.38,2.37-1.38,1.67,0,2.89.95,3.28,2.2l1.9-.69,1.87-.75ZM375.61,26.46c0,.07-.03.07.07.07-.07,0-.07-.03-.07-.07"/>
    </g>
  </g>
</svg>