<svg width="187" height="79" viewBox="0 0 187 79" fill="none" xmlns="http://www.w3.org/2000/svg">
<path d="M10.7718 0.102021C13.071 -0.0326014 15.4205 0.0694394 17.7274 0.06747C19.4231 0.0660313 22.959 -0.154652 24.4871 0.210052C24.5274 0.272664 24.5595 0.337226 24.5863 0.406848C24.7353 0.791756 24.7658 4.14689 24.601 4.5373C24.3655 4.7324 24.2941 4.7226 24.0013 4.73944C21.103 4.68281 18.1947 4.73179 15.2953 4.73128C13.85 4.73097 11.3491 4.9674 10.0521 4.53842C9.96567 4.50985 9.95658 4.49485 9.91679 4.40944C9.67815 3.89699 9.82893 0.888011 10.0362 0.330052C10.2834 0.136858 10.4659 0.146378 10.7718 0.102021Z" fill="white"/>
<path d="M97.8537 34.8203C97.7961 34.0651 97.7163 30.438 98.0092 29.9207C98.6707 30.0034 99.4281 30.3152 100.1 30.472C101.166 30.7209 102.504 31.1548 103.583 31.3183C107.784 31.9209 112.806 32.5919 116.624 30.2526C118.886 28.8666 119.414 24.7352 117.941 22.5883C116.284 20.1739 113.423 20.3509 110.853 20.3611C108.813 20.3692 106.55 20.4753 104.527 20.1665C102.251 19.7671 99.5049 18.4134 98.2031 16.4C95.694 12.5191 95.9676 5.53437 99.9654 2.71612C103.51 0.218148 107.432 -0.102404 111.592 0.0371984C112.978 0.0836576 114.388 -0.0140361 115.772 0.125607C118.083 0.413739 120.455 0.968719 122.757 1.3993C122.76 2.16109 122.934 5.96958 122.687 6.32988C122.565 6.50825 119.156 5.44162 118.756 5.33733C115.342 4.44856 111.447 4.04478 107.964 4.63101C106.067 4.95009 104.003 5.57845 102.839 7.24499C101.934 8.54009 101.74 10.2535 102.011 11.7888C102.769 16.0701 107.549 15.6901 110.795 15.6798C112.303 15.6751 113.825 15.7078 115.325 15.8854C117.118 16.0978 118.999 16.6648 120.489 17.7195C122.113 18.8686 123.303 20.8308 123.649 22.7966C123.541 24.4448 123.481 26.0047 123.634 27.6518C123.667 27.9934 123.673 28.3485 123.656 28.691C123.649 28.718 123.643 28.7451 123.637 28.772C121.377 38.9139 105.139 36.517 97.8537 34.8203Z" fill="white"/>
<path d="M92.9808 26.8869C92.2688 38.9642 75.6994 36.7011 67.7012 34.9724C66.6908 34.8049 67.2725 33.0318 67.2014 32.3053C67.2345 32.0862 66.9425 29.9796 67.2661 30.045C69.9293 30.5831 72.5097 31.468 75.2405 31.6813C79.3289 32.0005 85.6608 32.4792 87.5738 27.8122C88.0262 26.7084 87.8878 24.1762 87.3427 23.0552C85.8951 20.4178 82.4606 20.2054 79.7781 20.3664C73.9759 20.7146 67.4851 19.9319 66.0739 13.0845C64.8497 7.14426 67.5143 1.78726 73.6529 0.665203C74.4706 0.515754 75.3924 0.185947 76.2462 0.129203C81.0731 -0.0716138 87.2883 -0.137277 91.8603 1.48459C91.8552 2.31449 91.9513 5.80068 91.7448 6.33262C90.5687 6.18864 89.05 5.59252 87.7984 5.29813C82.8307 4.12966 70.8071 2.67916 71.021 10.7185C71.1564 15.8116 76.0357 15.8018 79.8368 15.6802C86.1075 15.4796 92.6905 16.7696 92.9477 24.4495C92.9316 25.2659 92.9299 26.0718 92.9808 26.8869Z" fill="white"/>
<path d="M142.402 0.107724C143.67 -0.0358783 145.144 0.0446223 146.405 0.188571C147.773 2.20242 148.544 4.71466 149.473 6.96232C150.695 9.91701 151.979 12.8733 153.241 15.8119C155.572 21.1008 157.819 26.4268 159.983 31.7878C160.548 33.1863 161.418 34.5639 161.75 36.0359C160.489 36.0972 157.187 36.3747 156.112 35.7736C154.982 35.1424 152.418 25.5038 151.084 25.0405C150.332 24.7792 149.35 24.9267 148.561 24.9332L143.556 24.9658C142.61 24.9758 141.595 25.0658 140.658 24.9547C140.353 24.9185 140.179 24.8818 139.952 24.6782C139.957 23.7152 140.783 21.7346 141.078 20.745C143.363 20.2758 147.494 21.0724 149.311 20.4824C149.328 20.4567 149.342 20.433 149.355 20.4051C149.664 19.7191 148.367 17.4805 148.076 16.7654C147.789 16.062 147.539 15.3405 147.284 14.6253C147.198 14.2674 146.925 13.8888 146.785 13.5388L145.168 9.51048C144.808 8.61344 144.593 7.58375 144.136 6.73844C143.883 6.57283 143.823 6.55385 143.521 6.54007C143.236 6.76038 142.184 9.89385 141.974 10.4228L134.677 28.3806C133.693 30.8224 132.81 33.6793 131.553 35.955C129.872 36.2637 127.91 36.0765 126.195 36.0678C126.454 34.7848 140.977 0.578235 141.142 0.381898C141.365 0.11549 142.072 0.131458 142.402 0.107724Z" fill="white"/>
<path d="M1.16698 0.0943593C2.70354 0.0600736 4.4643 -0.0334268 6.00011 0.122492C6.25724 0.148604 6.29633 0.336226 6.39509 0.543992C6.14363 3.30884 6.20604 5.77527 6.20594 8.54221L6.20968 18.9477L6.20796 28.6198C6.20705 30.8495 6.14858 33.2421 6.34793 35.4473L6.30188 36.0115C4.9008 36.1423 2.62289 36.0582 1.15501 36.0405C1.08293 34.2142 1.131 32.0633 1.13045 30.2108L1.12882 19.646C1.12849 13.349 0.979249 6.34313 1.16698 0.0943593Z" fill="white"/>
<path d="M56.2712 0.122569C57.297 0.0829058 60.2429 -0.04289 61.1092 0.206977C61.2754 1.64581 61.1644 5.45348 61.1612 7.05868L61.156 20.7119L61.1536 31.1705C61.1557 32.055 61.2536 35.0529 61.1453 35.7515C60.6393 36.2539 59.1026 36.0055 58.4124 36.0758C55.7456 36.3477 55.2888 34.9939 53.8372 32.9825L51.1413 29.296C48.5341 25.7665 45.7712 22.2864 43.1915 18.7976L38.3531 12.2219C37.9257 11.6346 36.1879 9.02062 35.7344 8.81246C35.5204 8.99644 35.4312 9.27348 35.438 9.55654C35.4877 11.6306 35.4922 13.7668 35.485 15.8353L35.4808 30.667C35.4825 32.4175 35.57 34.3572 35.5342 36.0602C34.1865 36.0712 31.6961 36.1494 30.4833 35.9361C30.3272 33.5744 30.4154 30.3548 30.4159 27.9319L30.4211 13.7724L30.4147 5.25736C30.4139 3.90889 30.3409 1.35957 30.5672 0.138539C31.8083 0.0622631 34.0223 0.00265072 35.2498 0.139508C36.2513 0.780855 38.9573 4.80032 39.8139 5.9545C42.4822 9.54991 45.3093 13.0772 47.9813 16.6553L52.889 23.25C53.3145 23.8326 55.3795 26.8826 55.8704 27.153C55.9591 27.2651 56.0618 27.2843 56.1951 27.3291L56.3181 27.2227C56.4702 26.739 56.4582 1.57055 56.2712 0.122569Z" fill="white"/>
<path d="M159.13 0.113146C162.373 0.0351357 165.626 0.0851355 168.871 0.0848906L186.062 0.0837275C186.106 1.61025 186.146 3.15832 186.055 4.68301C184.044 4.87679 176.414 4.42638 175.441 4.86434C175.31 5.21893 175.258 5.57842 175.236 5.95424C175.112 8.00965 175.238 10.1556 175.238 12.2204L175.241 25.3204C175.239 28.8952 175.336 32.4893 175.24 36.0617C173.462 36.0872 171.682 36.0644 169.904 36.0642C170.014 28.5704 169.938 21.0665 169.938 13.5712L169.942 8.6773C169.95 7.48832 170.106 6.07342 169.851 4.91291C168.741 4.40587 160.976 4.90005 158.987 4.66699C158.976 3.29424 158.759 1.43004 159.13 0.113146Z" fill="white"/>
<path d="M55.869 27.1534L55.9179 27.0228L55.7285 26.7706C56.1934 25.639 55.7758 24.3126 55.7845 23.107C55.8043 20.3716 55.5821 1.78785 56.0472 0.973945C56.1784 0.744424 56.1539 0.389669 56.2697 0.123047C56.4568 1.57103 56.4688 26.7395 56.3167 27.2231L56.1937 27.3296C56.0604 27.2848 55.9577 27.2656 55.869 27.1534Z" fill="white"/>
<path d="M6.39517 0.543253C6.41325 0.807314 6.41486 1.80779 6.46283 1.90169C6.61341 1.16047 6.93789 1.6327 6.60078 0.326172C6.868 0.896917 6.85376 2.19952 6.87285 2.94688C6.79297 6.49688 7.1431 33.6106 6.66552 34.8052L6.57079 34.7845L6.45455 34.4544L6.36548 34.5501C6.4084 34.8565 6.50616 35.2028 6.34801 35.4466C6.14865 33.2414 6.20713 30.8487 6.20804 28.619L6.20975 18.947L6.20602 8.54147C6.20612 5.77453 6.14371 3.3081 6.39517 0.543253Z" fill="white"/>
<path d="M6.87168 2.94727C6.96539 3.12543 6.95388 3.19757 6.95398 3.39471C6.95711 13.9906 6.95489 24.5873 6.95035 35.183C6.95025 35.4156 6.92944 35.8276 6.82835 36.0233C6.5889 36.0505 6.53639 36.0557 6.30078 36.0111L6.34683 35.447C6.50498 35.2032 6.40722 34.8569 6.3643 34.5505L6.45338 34.4548L6.56962 34.7849L6.66434 34.8056C7.14192 33.6109 6.79179 6.49727 6.87168 2.94727Z" fill="white"/>
<path d="M10.5663 15.7253C13.1276 15.5045 15.8273 15.6745 18.4062 15.6713C19.7531 15.6696 22.3719 15.4786 23.539 15.7361C23.6017 15.7976 23.6544 15.8636 23.6987 15.9402C23.9396 16.3573 23.9426 19.3675 23.7965 19.9068C23.6051 20.1409 23.5899 20.1401 23.2927 20.1948C18.8369 20.1316 14.2778 20.3951 9.84128 20.1238C9.86471 19.1384 9.58507 16.9065 9.99368 16.0935C10.1321 15.8182 10.301 15.8097 10.5663 15.7253Z" fill="white"/>
<path d="M123.653 22.7969C123.692 22.9737 123.731 23.1804 123.799 23.354C124.347 24.7539 124.202 26.7398 123.747 28.1583C123.706 28.2851 123.678 28.5541 123.659 28.6913C123.676 28.3487 123.67 27.9936 123.637 27.6521C123.484 26.0049 123.545 24.445 123.653 22.7969Z" fill="white"/>
<path d="M9.98125 31.6218C15.0049 31.5905 20.0286 31.5923 25.0522 31.6274C24.9206 32.678 25.4477 35.1906 24.7528 35.974C23.1178 36.2132 21.3105 36.0731 19.6563 36.0729C16.3958 36.0723 13.1544 36.0886 9.89875 35.932C9.83351 35.2412 9.67384 32.0977 9.98125 31.6218ZM24.8367 34.5973C24.8848 34.1313 25.0301 33.3438 24.6938 32.9642C24.6632 32.9296 24.6333 32.9062 24.5928 32.8854C24.5473 33.4012 24.4624 33.9415 24.587 34.4506C24.677 34.5267 24.7191 34.574 24.8367 34.5973Z" fill="white"/>
<path d="M24.5904 32.8848C24.6308 32.9056 24.6607 32.929 24.6913 32.9636C25.0276 33.3432 24.8823 34.1307 24.8342 34.5967C24.7166 34.5734 24.6745 34.5261 24.5845 34.45C24.4599 33.9409 24.5448 33.4006 24.5904 32.8848Z" fill="white"/>
<g opacity="0.7">
<path d="M0 50.7178C59.4 50.7178 118.8 50.7178 180 50.7178C180 51.046 180 51.3741 180 51.7122C120.6 51.7122 61.2 51.7122 0 51.7122C0 51.3841 0 51.0559 0 50.7178Z" fill="white"/>
</g>
<path d="M161.486 78.7186H159.729L151.543 67.7777H151.48V78.7186H150.055V65.8936H151.844L159.998 76.8344H160.061V65.8936H161.486V78.7186Z" fill="white"/>
<path d="M131.817 78.9081C130.529 78.9081 129.405 78.639 128.444 78.1006C127.484 77.5517 126.739 76.7812 126.212 75.789C125.684 74.7967 125.42 73.6356 125.42 72.3056C125.42 70.9651 125.684 69.804 126.212 68.8223C126.739 67.8301 127.484 67.0648 128.444 66.5265C129.405 65.9776 130.529 65.7031 131.817 65.7031C133.115 65.7031 134.244 65.9776 135.205 66.5265C136.165 67.0648 136.904 67.8301 137.422 68.8223C137.949 69.804 138.213 70.9651 138.213 72.3056C138.213 73.6356 137.949 74.7967 137.422 75.789C136.894 76.7812 136.15 77.5517 135.189 78.1006C134.239 78.639 133.115 78.9081 131.817 78.9081ZM131.817 77.5781C133.315 77.5781 134.498 77.1084 135.363 76.169C136.229 75.2295 136.662 73.9417 136.662 72.3056C136.662 70.659 136.229 69.3712 135.363 68.4423C134.508 67.5028 133.326 67.0331 131.817 67.0331C130.318 67.0331 129.135 67.5028 128.27 68.4423C127.404 69.3712 126.972 70.659 126.972 72.3056C126.972 73.9523 127.404 75.2453 128.27 76.1848C129.135 77.1137 130.318 77.5781 131.817 77.5781Z" fill="white"/>
<path d="M112 78.7186V65.8936H113.52V78.7186H112Z" fill="white"/>
<path d="M99.3418 78.7186H97.5843L89.3985 67.7777H89.3352V78.7186H87.9102V65.8936H89.6993L97.8535 76.8344H97.9168V65.8936H99.3418V78.7186Z" fill="white"/>
<path d="M75.2989 78.7186H73.5414L65.3555 67.7777H65.2922V78.7186H63.8672V65.8936H65.6564L73.8105 76.8344H73.8739V65.8936H75.2989V78.7186Z" fill="white"/>
<path d="M40.0176 78.7186L45.5434 65.8936H47.3009L52.8109 78.7186H51.2909L49.5492 74.6652H43.2476L41.5059 78.7186H40.0176ZM43.7384 73.3352H49.0584L46.4459 67.2236H46.3667L43.7384 73.3352Z" fill="white"/>
<path d="M21.6465 78.7186V65.8936H23.1665V77.4202H30.2915V78.7186H21.6465Z" fill="white"/>
</svg>
